<svg width="32" height="46" viewBox="0 0 32 46" fill="none" xmlns="http://www.w3.org/2000/svg">
<path d="M14.9632 45.3875C15.2495 45.7958 15.6248 46 16.0002 46C16.3756 46 16.7509 45.7958 17.0373 45.3875L24.3706 34.933C24.9434 34.1165 24.9434 32.7926 24.3706 31.976C23.7978 31.1596 22.8691 31.1596 22.2965 31.976L17.4669 38.8612V2.09091C17.4669 0.93617 16.8102 0 16.0002 0C15.1902 0 14.5335 0.93617 14.5335 2.09091V38.8612L9.70393 31.976C9.13115 31.1596 8.20256 31.1596 7.62978 31.976C7.057 32.7924 7.057 34.1164 7.62978 34.933L14.9632 45.3875Z" fill="black"/>
</svg>
