<svg width="1905" height="116" viewBox="0 0 1905 116" fill="none" xmlns="http://www.w3.org/2000/svg">
<path d="M184.395 66.9695H179.39V49.4646C179.39 47.7393 179.064 46.1199 178.413 44.6062C177.762 43.0925 176.867 41.7742 175.728 40.6511C174.604 39.5118 173.278 38.6166 171.748 37.9656C170.234 37.2983 168.615 36.9646 166.89 36.9646H164.204V66.9695H159.199V31.9597H166.89C168.485 31.9597 170.015 32.1713 171.479 32.5945C172.961 33.0014 174.344 33.5792 175.63 34.3279C176.916 35.0766 178.088 35.9718 179.146 37.0134C180.203 38.0551 181.123 39.2107 181.904 40.4802C182.669 39.2107 183.581 38.0551 184.639 37.0134C185.697 35.9718 186.868 35.0766 188.154 34.3279C189.44 33.5792 190.815 33.0014 192.28 32.5945C193.761 32.1713 195.299 31.9597 196.895 31.9597H204.609V66.9695H199.604V36.9646H196.895C195.169 36.9646 193.55 37.2983 192.036 37.9656C190.522 38.6166 189.196 39.5118 188.057 40.6511C186.934 41.7742 186.038 43.0925 185.371 44.6062C184.72 46.1199 184.395 47.7393 184.395 49.4646V66.9695ZM262.305 49.4646C262.305 51.8897 261.922 54.1684 261.157 56.3005C260.392 58.4327 259.302 60.2882 257.886 61.8669C256.486 63.4457 254.801 64.6908 252.832 65.6023C250.863 66.5138 248.674 66.9695 246.265 66.9695H234.619C232.194 66.9695 229.989 66.5138 228.003 65.6023C226.017 64.6908 224.316 63.4457 222.9 61.8669C221.501 60.2882 220.418 58.4327 219.653 56.3005C218.888 54.1684 218.506 51.8897 218.506 49.4646C218.506 47.0557 218.888 44.7934 219.653 42.6775C220.418 40.5453 221.501 38.6899 222.9 37.1111C224.316 35.516 226.017 34.2628 228.003 33.3513C229.989 32.4236 232.194 31.9597 234.619 31.9597H246.265C248.674 31.9597 250.863 32.4236 252.832 33.3513C254.801 34.2628 256.486 35.516 257.886 37.1111C259.302 38.6899 260.392 40.5453 261.157 42.6775C261.922 44.7934 262.305 47.0557 262.305 49.4646ZM257.3 49.4646C257.3 47.7393 257.048 46.1199 256.543 44.6062C256.038 43.0925 255.306 41.7742 254.346 40.6511C253.402 39.5118 252.246 38.6166 250.879 37.9656C249.528 37.2983 247.99 36.9646 246.265 36.9646H234.619C232.894 36.9646 231.34 37.2983 229.956 37.9656C228.589 38.6166 227.425 39.5118 226.465 40.6511C225.521 41.7742 224.788 43.0925 224.268 44.6062C223.763 46.1199 223.511 47.7393 223.511 49.4646C223.511 51.1899 223.763 52.8175 224.268 54.3474C224.788 55.8611 225.521 57.1876 226.465 58.3269C227.425 59.45 228.589 60.337 229.956 60.988C231.34 61.6391 232.894 61.9646 234.619 61.9646H246.265C247.99 61.9646 249.528 61.6391 250.879 60.988C252.246 60.337 253.402 59.45 254.346 58.3269C255.306 57.1876 256.038 55.8611 256.543 54.3474C257.048 52.8175 257.3 51.1899 257.3 49.4646ZM294.609 66.9695H289.604V36.9646H271.904V31.9597H312.31V36.9646H294.609V66.9695ZM365.732 49.4646C365.732 51.8897 365.35 54.1684 364.585 56.3005C363.82 58.4327 362.729 60.2882 361.313 61.8669C359.914 63.4457 358.229 64.6908 356.26 65.6023C354.29 66.5138 352.101 66.9695 349.692 66.9695H338.047C335.622 66.9695 333.416 66.5138 331.431 65.6023C329.445 64.6908 327.744 63.4457 326.328 61.8669C324.928 60.2882 323.846 58.4327 323.081 56.3005C322.316 54.1684 321.934 51.8897 321.934 49.4646C321.934 47.0557 322.316 44.7934 323.081 42.6775C323.846 40.5453 324.928 38.6899 326.328 37.1111C327.744 35.516 329.445 34.2628 331.431 33.3513C333.416 32.4236 335.622 31.9597 338.047 31.9597H349.692C352.101 31.9597 354.29 32.4236 356.26 33.3513C358.229 34.2628 359.914 35.516 361.313 37.1111C362.729 38.6899 363.82 40.5453 364.585 42.6775C365.35 44.7934 365.732 47.0557 365.732 49.4646ZM360.728 49.4646C360.728 47.7393 360.475 46.1199 359.971 44.6062C359.466 43.0925 358.734 41.7742 357.773 40.6511C356.829 39.5118 355.674 38.6166 354.307 37.9656C352.956 37.2983 351.418 36.9646 349.692 36.9646H338.047C336.322 36.9646 334.767 37.2983 333.384 37.9656C332.017 38.6166 330.853 39.5118 329.893 40.6511C328.949 41.7742 328.216 43.0925 327.695 44.6062C327.191 46.1199 326.938 47.7393 326.938 49.4646C326.938 51.1899 327.191 52.8175 327.695 54.3474C328.216 55.8611 328.949 57.1876 329.893 58.3269C330.853 59.45 332.017 60.337 333.384 60.988C334.767 61.6391 336.322 61.9646 338.047 61.9646H349.692C351.418 61.9646 352.956 61.6391 354.307 60.988C355.674 60.337 356.829 59.45 357.773 58.3269C358.734 57.1876 359.466 55.8611 359.971 54.3474C360.475 52.8175 360.728 51.1899 360.728 49.4646ZM420.034 66.9695H413.271L402.773 56.9597H387.441V52.0281H407.534C408.576 52.0281 409.552 51.8328 410.464 51.4421C411.375 51.0352 412.165 50.49 412.832 49.8064C413.516 49.1228 414.053 48.3253 414.443 47.4138C414.834 46.4861 415.029 45.5014 415.029 44.4597C415.029 43.4181 414.834 42.4415 414.443 41.53C414.053 40.6186 413.516 39.8292 412.832 39.1619C412.165 38.4783 411.375 37.9412 410.464 37.5505C409.552 37.1599 408.576 36.9646 407.534 36.9646H384.634V66.9695H379.629V31.9597H407.534C409.259 31.9597 410.879 32.2934 412.393 32.9607C413.906 33.6117 415.225 34.5069 416.348 35.6462C417.487 36.7693 418.382 38.0876 419.033 39.6013C419.701 41.115 420.034 42.7345 420.034 44.4597C420.034 46.0222 419.766 47.5033 419.229 48.9031C418.691 50.2865 417.951 51.5317 417.007 52.6384C416.063 53.7289 414.948 54.6404 413.662 55.3728C412.393 56.0889 411.017 56.5691 409.536 56.8132L420.034 66.9695ZM472.603 56.9597C472.603 58.3595 472.342 59.6697 471.821 60.8904C471.3 62.0948 470.584 63.1528 469.673 64.0642C468.778 64.9594 467.72 65.6674 466.499 66.1882C465.295 66.7091 464.001 66.9695 462.617 66.9695H432.197V61.9646H462.617C463.317 61.9646 463.968 61.8344 464.57 61.574C465.173 61.3136 465.693 60.9555 466.133 60.4998C466.589 60.044 466.947 59.5151 467.207 58.9128C467.467 58.2944 467.598 57.6433 467.598 56.9597C467.598 56.2761 467.467 55.6332 467.207 55.031C466.947 54.4288 466.589 53.8998 466.133 53.4441C465.693 52.9884 465.173 52.6303 464.57 52.3699C463.968 52.1095 463.317 51.9792 462.617 51.9792H442.207C440.84 51.9792 439.546 51.7188 438.325 51.198C437.104 50.6772 436.038 49.9692 435.127 49.074C434.232 48.1625 433.516 47.0964 432.979 45.8757C432.458 44.655 432.197 43.3529 432.197 41.9695C432.197 40.6023 432.458 39.3083 432.979 38.0876C433.516 36.8669 434.232 35.809 435.127 34.9138C436.038 34.0024 437.104 33.2862 438.325 32.7654C439.546 32.2283 440.84 31.9597 442.207 31.9597H470.112V36.9646H442.207C441.523 36.9646 440.872 37.0948 440.254 37.3552C439.652 37.6156 439.123 37.9737 438.667 38.4294C438.211 38.8852 437.853 39.4223 437.593 40.0408C437.332 40.643 437.202 41.2859 437.202 41.9695C437.202 42.6531 437.332 43.3041 437.593 43.9226C437.853 44.5248 438.211 45.0538 438.667 45.5095C439.123 45.9653 439.652 46.3233 440.254 46.5837C440.872 46.8442 441.523 46.9744 442.207 46.9744H462.617C464.001 46.9744 465.295 47.2429 466.499 47.78C467.72 48.3009 468.778 49.017 469.673 49.9285C470.584 50.8236 471.3 51.8816 471.821 53.1023C472.342 54.3067 472.603 55.5925 472.603 56.9597Z" fill="#EEEEEE"/>
<path d="M17.957 84.4619L17.957 16.3853L23.3126 22.2151L23.3126 84.4619H17.957Z" fill="#EEEEEE"/>
<path d="M78.4434 84.4619V16.3853L83.799 22.2151V84.4619H78.4434Z" fill="#EEEEEE"/>
<path d="M108.215 19.394H89.7858L83.8001 13.0001L113.729 13.0001L108.215 19.394Z" fill="#EEEEEE"/>
<path d="M64.582 82.5811V76.1871H70.8827L64.582 82.5811Z" fill="#EEEEEE"/>
<path d="M125.699 82.5811V76.1871H132L125.699 82.5811Z" fill="#EEEEEE"/>
<path d="M64.582 95.7451V88.9751L70.8827 82.9572V95.7451H64.582Z" fill="#EEEEEE"/>
<path d="M125.699 95.7451V88.9751L132 82.9572V95.7451H125.699Z" fill="#EEEEEE"/>
<rect width="35.0486" height="5.97479" transform="matrix(-0.556794 -0.83065 0.723038 -0.690808 66.5039 80.2759)" fill="#EEEEEE"/>
<rect width="31.5236" height="5.97479" transform="matrix(-0.556794 -0.83065 0.723038 -0.690808 127.469 80.2612)" fill="#EEEEEE"/>
<path d="M30.7205 90.7774C28.5595 93.4082 25.0352 93.5151 22.7505 91.0191L17.9519 85.7768L17.9519 75.0587L30.7205 90.7774V90.7774Z" fill="#EEEEEE"/>
<path d="M91.2898 89.649C89.1288 92.2798 85.6045 92.3866 83.3198 89.8906L78.5213 84.6484L78.5213 73.9303L91.2898 89.649V89.649Z" fill="#EEEEEE"/>
<path d="M65.2129 95.7451H54.971C51.232 95.7451 48.201 92.7141 48.201 88.9751V88.9751L65.2129 88.9751V95.7451Z" fill="#EEEEEE"/>
<path d="M126.014 95.7451H116.087C112.348 95.7451 109.317 92.7141 109.317 88.9751V88.9751L126.014 88.9751V95.7451Z" fill="#EEEEEE"/>
<path d="M5.3556 64.1516C2.39778 64.1516 0 61.7538 0 58.796L0 52.116H5.3556L5.3556 64.1516V64.1516Z" fill="#EEEEEE"/>
<rect y="46.8501" width="14.4916" height="5.64171" fill="#EEEEEE"/>
<path d="M27.408 53.0562V47.0383C27.408 47.0383 43.4748 47.0383 51.6657 47.0383C59.8566 47.0383 64.7397 40.4563 64.7397 32.9341C64.7397 25.4118 59.5416 20.1462 51.6657 20.1462C43.7898 20.1462 28.5106 20.1462 28.5106 20.1462L23.3125 14.3164H50.2528C60.9505 14.3164 69.6227 22.9886 69.6227 33.6863V33.6863C69.6227 44.384 60.9505 53.0562 50.2528 53.0562H27.408Z" fill="#EEEEEE"/>
<path d="M100.191 19.9335C103.799 15.3572 107.886 12.8418 113.585 13.0077C116.166 13.0829 117.693 13.42 120.043 14.6968C122.076 15.8013 123.823 17.7014 123.823 17.7014L120.043 21.6506C120.043 21.6506 117.354 18.5328 113.585 18.6417C109.977 18.746 106.272 20.5759 103.804 23.7192C101.49 26.6666 100.296 29.8441 100.191 33.882C100.08 38.1836 101.99 42.0094 104.606 44.9697C107.086 47.7755 110.169 49.2118 113.585 49.295C117.171 49.3823 120.797 47.7955 123.179 44.5936C125.44 41.5534 126.794 37.9479 126.794 33.882C126.794 28.4249 123.823 26.352 123.823 26.352L127.446 22.2225C127.446 22.2225 128.901 23.1551 130.597 27.6727C131.378 29.7546 131.699 31.998 131.699 33.882C131.699 39.5203 130.45 44.2997 126.794 48.6838C123.083 53.1353 118.845 55.0454 113.585 54.9367C108.554 54.8327 104.621 52.8283 100.978 48.6838C97.1605 44.3396 95.5991 40.1747 95.7853 33.882C95.9576 28.0617 96.848 24.1743 100.191 19.9335Z" fill="#EEEEEE"/>
<path d="M533 74.1795C529.5 74.1795 526.257 73.5495 523.27 72.2895C520.283 71.0295 517.67 69.2795 515.43 67.0395C513.19 64.7528 511.44 62.1161 510.18 59.1295C508.967 56.1428 508.36 52.9228 508.36 49.4695C508.36 46.0161 508.99 42.7961 510.25 39.8095C511.51 36.8228 513.26 34.2095 515.5 31.9695C517.74 29.6828 520.353 27.9095 523.34 26.6495C526.373 25.3895 529.64 24.7595 533.14 24.7595C536.64 24.7595 539.883 25.3895 542.87 26.6495C545.903 27.8628 548.517 29.5895 550.71 31.8295C552.95 34.0695 554.677 36.6828 555.89 39.6695C557.15 42.6095 557.78 45.8295 557.78 49.3295C557.78 52.8295 557.15 56.0961 555.89 59.1295C554.63 62.1161 552.857 64.7528 550.57 67.0395C548.33 69.2795 545.717 71.0295 542.73 72.2895C539.743 73.5495 536.5 74.1795 533 74.1795ZM533 71.0295C536.033 71.0295 538.857 70.4695 541.47 69.3495C544.083 68.2295 546.37 66.6895 548.33 64.7295C550.29 62.7695 551.807 60.4828 552.88 57.8695C553.953 55.2095 554.49 52.3628 554.49 49.3295C554.49 46.2961 553.953 43.4728 552.88 40.8595C551.807 38.2461 550.313 35.9828 548.4 34.0695C546.487 32.1561 544.223 30.6628 541.61 29.5895C539.043 28.4695 536.22 27.9095 533.14 27.9095C530.06 27.9095 527.19 28.4695 524.53 29.5895C521.917 30.6628 519.653 32.2028 517.74 34.2095C515.827 36.1695 514.333 38.4561 513.26 41.0695C512.187 43.6361 511.65 46.4361 511.65 49.4695C511.65 52.5028 512.187 55.3261 513.26 57.9395C514.333 60.5528 515.827 62.8395 517.74 64.7995C519.653 66.7595 521.917 68.2995 524.53 69.4195C527.143 70.4928 529.967 71.0295 533 71.0295ZM533.77 63.8895C530.923 63.8895 528.38 63.2828 526.14 62.0695C523.9 60.8561 522.15 59.1761 520.89 57.0295C519.63 54.8361 519 52.3161 519 49.4695C519 46.6228 519.63 44.1261 520.89 41.9795C522.15 39.7861 523.9 38.0828 526.14 36.8695C528.38 35.6561 530.923 35.0495 533.77 35.0495C536.243 35.0495 538.46 35.5628 540.42 36.5895C542.427 37.5695 543.99 38.9461 545.11 40.7195L541.12 43.5895C540.233 42.2828 539.137 41.3261 537.83 40.7195C536.57 40.1128 535.193 39.8095 533.7 39.8095C531.88 39.8095 530.27 40.2295 528.87 41.0695C527.517 41.8628 526.42 42.9828 525.58 44.4295C524.74 45.8295 524.32 47.5095 524.32 49.4695C524.32 51.4295 524.74 53.1328 525.58 54.5795C526.42 55.9795 527.517 57.0995 528.87 57.9395C530.27 58.7328 531.88 59.1295 533.7 59.1295C535.193 59.1295 536.57 58.8261 537.83 58.2195C539.137 57.6128 540.233 56.6561 541.12 55.3495L545.11 58.1495C543.99 59.9228 542.427 61.3228 540.42 62.3495C538.46 63.3761 536.243 63.8895 533.77 63.8895ZM574.812 73.9695V69.2095L594.762 49.9595C596.535 48.2795 597.842 46.8095 598.682 45.5495C599.569 44.2428 600.152 43.0528 600.432 41.9795C600.759 40.8595 600.922 39.7861 600.922 38.7595C600.922 36.2395 600.035 34.2561 598.262 32.8095C596.489 31.3628 593.899 30.6395 590.492 30.6395C587.879 30.6395 585.522 31.0828 583.422 31.9695C581.322 32.8095 579.502 34.1395 577.962 35.9595L573.202 31.8295C575.069 29.4495 577.565 27.6295 580.692 26.3695C583.865 25.0628 587.342 24.4095 591.122 24.4095C594.529 24.4095 597.492 24.9695 600.012 26.0895C602.532 27.1628 604.469 28.7261 605.822 30.7795C607.222 32.8328 607.922 35.2595 607.922 38.0595C607.922 39.6461 607.712 41.2095 607.292 42.7495C606.872 44.2895 606.079 45.9228 604.912 47.6495C603.745 49.3761 602.065 51.3128 599.872 53.4595L582.092 70.6095L580.412 67.8795H610.022V73.9695H574.812ZM631.879 74.5295C628.052 74.5295 624.622 73.5495 621.589 71.5895C618.602 69.6295 616.222 66.7828 614.449 63.0495C612.722 59.3161 611.859 54.7895 611.859 49.4695C611.859 44.1495 612.722 39.6228 614.449 35.8895C616.222 32.1561 618.602 29.3095 621.589 27.3495C624.622 25.3895 628.052 24.4095 631.879 24.4095C635.659 24.4095 639.065 25.3895 642.099 27.3495C645.132 29.3095 647.512 32.1561 649.239 35.8895C650.965 39.6228 651.829 44.1495 651.829 49.4695C651.829 54.7895 650.965 59.3161 649.239 63.0495C647.512 66.7828 645.132 69.6295 642.099 71.5895C639.065 73.5495 635.659 74.5295 631.879 74.5295ZM631.879 68.2995C634.445 68.2995 636.685 67.5995 638.599 66.1995C640.559 64.7995 642.075 62.6995 643.149 59.8995C644.269 57.0995 644.829 53.6228 644.829 49.4695C644.829 45.3161 644.269 41.8395 643.149 39.0395C642.075 36.2395 640.559 34.1395 638.599 32.7395C636.685 31.3395 634.445 30.6395 631.879 30.6395C629.312 30.6395 627.049 31.3395 625.089 32.7395C623.129 34.1395 621.589 36.2395 620.469 39.0395C619.395 41.8395 618.859 45.3161 618.859 49.4695C618.859 53.6228 619.395 57.0995 620.469 59.8995C621.589 62.6995 623.129 64.7995 625.089 66.1995C627.049 67.5995 629.312 68.2995 631.879 68.2995ZM653.928 73.9695V69.2095L673.878 49.9595C675.652 48.2795 676.958 46.8095 677.798 45.5495C678.685 44.2428 679.268 43.0528 679.548 41.9795C679.875 40.8595 680.038 39.7861 680.038 38.7595C680.038 36.2395 679.152 34.2561 677.378 32.8095C675.605 31.3628 673.015 30.6395 669.608 30.6395C666.995 30.6395 664.638 31.0828 662.538 31.9695C660.438 32.8095 658.618 34.1395 657.078 35.9595L652.318 31.8295C654.185 29.4495 656.682 27.6295 659.808 26.3695C662.982 25.0628 666.458 24.4095 670.238 24.4095C673.645 24.4095 676.608 24.9695 679.128 26.0895C681.648 27.1628 683.585 28.7261 684.938 30.7795C686.338 32.8328 687.038 35.2595 687.038 38.0595C687.038 39.6461 686.828 41.2095 686.408 42.7495C685.988 44.2895 685.195 45.9228 684.028 47.6495C682.862 49.3761 681.182 51.3128 678.988 53.4595L661.208 70.6095L659.528 67.8795H689.138V73.9695H653.928ZM688.976 61.9295V57.0295L714.036 24.9695H721.596L696.746 57.0295L693.176 55.9095H732.306V61.9295H688.976ZM716.206 73.9695V61.9295L716.416 55.9095V45.2695H722.996V73.9695H716.206Z" fill="#EEEEEE"/>
<path d="M799.52 74.96C792.213 74.96 786.853 73.04 783.44 69.2C780.08 65.3067 778.4 60.4533 778.4 54.64C778.4 52.9867 778.587 51.04 778.96 48.8C779.867 43.6267 781.84 39.0933 784.88 35.2C787.92 31.3067 791.547 28.32 795.76 26.24C799.973 24.16 804.32 23.12 808.8 23.12C810.987 23.12 813.2 23.36 815.44 23.84C817.68 24.32 819.413 24.9067 820.64 25.6C820.96 25.8133 821.147 26.0267 821.2 26.24C821.307 26.4533 821.333 26.8533 821.28 27.44L820.16 37.6C820.107 37.76 819.947 37.84 819.68 37.84C819.467 37.84 819.333 37.76 819.28 37.6C818.533 33.5467 816.96 30.4533 814.56 28.32C812.213 26.1867 809.227 25.12 805.6 25.12C800.8 25.12 796.72 27.0133 793.36 30.8C790 34.5867 787.813 39.76 786.8 46.32C786.48 48.56 786.32 50.7467 786.32 52.88C786.32 56.7733 786.853 60.2933 787.92 63.44C789.04 66.5867 790.64 69.0667 792.72 70.88C794.8 72.64 797.227 73.52 800 73.52C805.707 73.52 811.333 69.4933 816.88 61.44C816.933 61.3333 817.04 61.28 817.2 61.28C817.36 61.28 817.493 61.3333 817.6 61.44C817.76 61.4933 817.813 61.5733 817.76 61.68L815.52 70.72C815.36 71.36 815.2 71.8133 815.04 72.08C814.88 72.2933 814.56 72.4533 814.08 72.56C809.28 74.16 804.427 74.96 799.52 74.96ZM841.513 74.96C837.78 74.96 834.553 74.1067 831.833 72.4C829.113 70.64 827.033 68.24 825.593 65.2C824.153 62.1067 823.433 58.64 823.433 54.8C823.433 52.7733 823.62 50.8267 823.993 48.96C824.846 44.0533 826.606 39.6267 829.273 35.68C831.993 31.7333 835.3 28.6667 839.193 26.48C843.14 24.24 847.326 23.12 851.753 23.12C855.593 23.12 858.9 23.9733 861.673 25.68C864.446 27.3867 866.553 29.76 867.993 32.8C869.486 35.7867 870.233 39.2 870.233 43.04C870.233 45.12 870.046 47.0933 869.673 48.96C868.766 54.1333 866.9 58.6933 864.073 62.64C861.246 66.5333 857.833 69.5733 853.833 71.76C849.833 73.8933 845.726 74.96 841.513 74.96ZM844.953 72.88C849.006 72.88 852.553 71.1467 855.593 67.68C858.633 64.16 860.713 59.3333 861.833 53.2C862.313 50.5333 862.553 47.9467 862.553 45.44C862.553 41.5467 861.993 38.0533 860.873 34.96C859.806 31.8667 858.206 29.44 856.073 27.68C853.993 25.92 851.513 25.04 848.633 25.04C844.526 25.04 840.953 26.8267 837.913 30.4C834.873 33.92 832.82 38.6933 831.753 44.72C831.273 47.28 831.033 49.8133 831.033 52.32C831.033 56.16 831.566 59.6533 832.633 62.8C833.753 65.8933 835.353 68.3467 837.433 70.16C839.513 71.9733 842.02 72.88 844.953 72.88ZM925.457 24C925.564 24 925.617 24.16 925.617 24.48C925.617 24.8 925.564 24.96 925.457 24.96C923.484 24.96 921.804 25.68 920.417 27.12C919.084 28.5067 918.177 30.48 917.697 33.04L910.337 74.64C910.337 74.8 910.204 74.9067 909.937 74.96C909.724 75.0667 909.484 75.12 909.217 75.12C908.79 75.12 908.497 75.0133 908.337 74.8L885.137 31.68L879.217 64.96C879.057 65.8133 878.977 66.64 878.977 67.44C878.977 71.1733 880.684 73.04 884.097 73.04C884.204 73.04 884.257 73.2 884.257 73.52C884.257 73.84 884.204 74 884.097 74C882.817 74 881.83 73.9733 881.137 73.92L876.817 73.84L872.897 73.92C872.097 73.9733 870.977 74 869.537 74C869.377 74 869.297 73.84 869.297 73.52C869.297 73.2 869.377 73.04 869.537 73.04C871.51 73.04 873.164 72.3467 874.497 70.96C875.884 69.5733 876.79 67.5733 877.217 64.96L883.697 29.04C882.737 27.5467 881.804 26.5067 880.897 25.92C879.99 25.28 879.004 24.96 877.937 24.96C877.777 24.96 877.697 24.8 877.697 24.48C877.697 24.16 877.777 24 877.937 24L881.297 24.08C882.044 24.1333 883.057 24.16 884.337 24.16C885.457 24.16 886.417 24.1333 887.217 24.08C888.017 24.0267 888.577 24 888.897 24C889.217 24 889.457 24.1067 889.617 24.32C889.777 24.48 889.964 24.8533 890.177 25.44C890.444 26.1333 890.87 27.04 891.457 28.16L910.257 63.12L915.697 33.04C915.857 32.08 915.937 31.2267 915.937 30.48C915.937 28.6667 915.51 27.3067 914.657 26.4C913.804 25.44 912.55 24.96 910.897 24.96C910.737 24.96 910.657 24.8 910.657 24.48C910.657 24.16 910.737 24 910.897 24L913.697 24.08C915.404 24.1867 916.87 24.24 918.097 24.24C919.004 24.24 920.364 24.1867 922.177 24.08L925.457 24ZM945.161 74.96C937.854 74.96 932.494 73.04 929.081 69.2C925.721 65.3067 924.041 60.4533 924.041 54.64C924.041 52.9867 924.227 51.04 924.601 48.8C925.507 43.6267 927.481 39.0933 930.521 35.2C933.561 31.3067 937.187 28.32 941.401 26.24C945.614 24.16 949.961 23.12 954.441 23.12C956.627 23.12 958.841 23.36 961.081 23.84C963.321 24.32 965.054 24.9067 966.281 25.6C966.601 25.8133 966.787 26.0267 966.841 26.24C966.947 26.4533 966.974 26.8533 966.921 27.44L965.801 37.6C965.747 37.76 965.587 37.84 965.321 37.84C965.107 37.84 964.974 37.76 964.921 37.6C964.174 33.5467 962.601 30.4533 960.201 28.32C957.854 26.1867 954.867 25.12 951.241 25.12C946.441 25.12 942.361 27.0133 939.001 30.8C935.641 34.5867 933.454 39.76 932.441 46.32C932.121 48.56 931.961 50.7467 931.961 52.88C931.961 56.7733 932.494 60.2933 933.561 63.44C934.681 66.5867 936.281 69.0667 938.361 70.88C940.441 72.64 942.867 73.52 945.641 73.52C951.347 73.52 956.974 69.4933 962.521 61.44C962.574 61.3333 962.681 61.28 962.841 61.28C963.001 61.28 963.134 61.3333 963.241 61.44C963.401 61.4933 963.454 61.5733 963.401 61.68L961.161 70.72C961.001 71.36 960.841 71.8133 960.681 72.08C960.521 72.2933 960.201 72.4533 959.721 72.56C954.921 74.16 950.067 74.96 945.161 74.96ZM1005.79 24C1006.22 24 1006.38 24.24 1006.27 24.72L1004.59 35.2C1004.59 35.36 1004.49 35.44 1004.27 35.44C1004.11 35.44 1003.95 35.4133 1003.79 35.36C1003.69 35.2533 1003.63 35.1733 1003.63 35.12C1003.63 32.1867 1002.81 29.8667 1001.15 28.16C999.554 26.4 997.42 25.52 994.754 25.52H991.634C990.034 25.52 988.86 25.6533 988.114 25.92C987.367 26.1333 986.834 26.5867 986.514 27.28C986.194 27.9733 985.9 29.0667 985.634 30.56L982.754 46.96H992.514C994.807 46.96 996.567 46.5067 997.794 45.6C999.02 44.6933 999.847 43.1733 1000.27 41.04C1000.33 40.7733 1000.51 40.6667 1000.83 40.72C1001.15 40.72 1001.29 40.8533 1001.23 41.12L1000.51 45.2C1000.35 45.9467 1000.17 46.88 999.954 48C999.74 49.0667 999.554 50.2933 999.394 51.68C999.287 52.2133 999.18 52.8533 999.074 53.6C998.967 54.2933 998.834 55.0933 998.674 56C998.62 56.2133 998.434 56.32 998.114 56.32C997.794 56.2667 997.66 56.1333 997.714 55.92C997.82 55.44 997.874 54.8 997.874 54C997.874 50.6933 995.9 49.04 991.954 49.04H982.354L979.154 67.2C978.994 68.16 978.914 68.96 978.914 69.6C978.914 70.72 979.234 71.4667 979.874 71.84C980.514 72.2133 981.66 72.4 983.314 72.4H987.634C990.354 72.4 993.02 71.4133 995.634 69.44C998.247 67.4667 1000.41 64.8267 1002.11 61.52C1002.11 61.4133 1002.22 61.36 1002.43 61.36C1002.59 61.36 1002.73 61.4133 1002.83 61.52C1002.99 61.5733 1003.05 61.6267 1002.99 61.68C1002.03 64.7733 1001.15 68.48 1000.35 72.8C1000.25 73.2267 1000.09 73.5467 999.874 73.76C999.714 73.92 999.447 74 999.074 74H966.114C965.954 74 965.874 73.84 965.874 73.52C965.874 73.2 965.954 73.04 966.114 73.04C967.66 73.04 968.807 72.9067 969.554 72.64C970.3 72.3733 970.86 71.8667 971.234 71.12C971.607 70.3733 971.954 69.1733 972.274 67.52L978.834 30.48C979.047 29.0933 979.154 28.24 979.154 27.92C979.154 26.7467 978.807 25.9733 978.114 25.6C977.474 25.1733 976.3 24.96 974.594 24.96C974.487 24.96 974.434 24.8 974.434 24.48C974.434 24.16 974.487 24 974.594 24H1005.79ZM1005.75 74C1005.64 74 1005.59 73.84 1005.59 73.52C1005.59 73.2 1005.64 73.04 1005.75 73.04C1007.35 73.04 1008.52 72.9067 1009.27 72.64C1010.07 72.3733 1010.65 71.8667 1011.03 71.12C1011.45 70.32 1011.8 69.12 1012.07 67.52L1018.63 30.48C1018.84 29.0933 1018.95 28.2133 1018.95 27.84C1018.95 26.72 1018.6 25.9733 1017.91 25.6C1017.27 25.1733 1016.09 24.96 1014.39 24.96C1014.23 24.96 1014.15 24.8 1014.15 24.48C1014.15 24.16 1014.23 24 1014.39 24L1017.75 24.08C1019.88 24.1867 1021.59 24.24 1022.87 24.24C1023.45 24.24 1024.71 24.1867 1026.63 24.08C1029.19 23.8667 1031.16 23.76 1032.55 23.76C1036.92 23.76 1040.44 24.72 1043.11 26.64C1045.77 28.5067 1047.11 31.2533 1047.11 34.88C1047.11 35.7333 1047.03 36.6933 1046.86 37.76C1046.23 41.12 1044.81 43.9733 1042.63 46.32C1040.49 48.6133 1038.01 50.32 1035.19 51.44C1032.41 52.5067 1029.72 53.04 1027.11 53.04C1025.77 53.04 1024.68 52.9067 1023.83 52.64C1023.77 52.64 1023.75 52.56 1023.75 52.4C1023.75 52.1333 1023.8 51.8667 1023.91 51.6C1024.01 51.28 1024.12 51.1467 1024.23 51.2C1024.92 51.4133 1025.72 51.52 1026.63 51.52C1029.61 51.52 1032.28 50.5067 1034.63 48.48C1036.97 46.4 1038.47 43.36 1039.11 39.36C1039.32 38.2933 1039.43 37.1467 1039.43 35.92C1039.43 32.6667 1038.6 30.08 1036.95 28.16C1035.35 26.24 1033.35 25.28 1030.95 25.28C1029.56 25.28 1028.52 25.4133 1027.83 25.68C1027.19 25.9467 1026.68 26.4533 1026.31 27.2C1025.93 27.8933 1025.59 29.04 1025.27 30.64L1018.79 67.52C1018.57 68.9067 1018.47 69.7867 1018.47 70.16C1018.47 71.28 1018.79 72.0533 1019.43 72.48C1020.12 72.8533 1021.32 73.04 1023.03 73.04C1023.19 73.04 1023.27 73.2 1023.27 73.52C1023.27 73.84 1023.19 74 1023.03 74C1021.53 74 1020.36 73.9733 1019.51 73.92L1014.23 73.84L1009.27 73.92C1008.41 73.9733 1007.24 74 1005.75 74ZM1054.26 74C1054.1 74 1054.02 73.84 1054.02 73.52C1054.02 73.2 1054.1 73.04 1054.26 73.04C1056.18 73.04 1057.62 72.9067 1058.58 72.64C1059.54 72.3733 1060.24 71.8667 1060.66 71.12C1061.14 70.32 1061.54 69.12 1061.86 67.52L1068.34 30.48C1068.5 29.52 1068.58 28.72 1068.58 28.08C1068.58 27.12 1068.34 26.48 1067.86 26.16C1067.38 25.84 1066.53 25.68 1065.3 25.68H1064.02C1061.25 25.68 1058.69 26.8 1056.34 29.04C1054 31.28 1052.29 34.2133 1051.22 37.84C1051.17 38 1050.98 38.0533 1050.66 38C1050.4 37.9467 1050.29 37.84 1050.34 37.68C1050.77 36.2933 1051.38 33.8667 1052.18 30.4C1053.04 26.88 1053.65 24.16 1054.02 22.24C1054.08 22.08 1054.26 22.0267 1054.58 22.08C1054.9 22.08 1055.04 22.16 1054.98 22.32C1054.82 23.44 1055.86 24 1058.1 24C1062.05 24.16 1066.93 24.24 1072.74 24.24C1075.46 24.24 1078.48 24.1867 1081.78 24.08L1086.82 24C1088.42 24 1089.62 23.8667 1090.42 23.6C1091.22 23.3333 1091.78 22.8 1092.1 22C1092.21 21.84 1092.4 21.7867 1092.66 21.84C1092.93 21.84 1093.04 21.9467 1092.98 22.16C1092.5 23.8133 1091.86 26.48 1091.06 30.16C1090.26 33.84 1089.78 36.3467 1089.62 37.68C1089.57 37.8933 1089.38 38 1089.06 38C1088.74 37.9467 1088.61 37.8133 1088.66 37.6C1088.88 36.1067 1088.98 35.0667 1088.98 34.48C1088.98 31.76 1088.26 29.6267 1086.82 28.08C1085.44 26.48 1083.46 25.68 1080.9 25.68H1079.62C1078.02 25.68 1076.96 26 1076.42 26.64C1075.89 27.28 1075.46 28.6133 1075.14 30.64L1068.66 67.52C1068.45 68.8 1068.34 69.6267 1068.34 70C1068.34 71.2267 1068.77 72.0533 1069.62 72.48C1070.48 72.8533 1072.08 73.04 1074.42 73.04C1074.53 73.04 1074.58 73.2 1074.58 73.52C1074.58 73.84 1074.53 74 1074.42 74C1072.66 74 1071.28 73.9733 1070.26 73.92L1064.26 73.84L1058.5 73.92C1057.44 73.9733 1056.02 74 1054.26 74ZM1100.33 23.2C1101.88 23.2 1103.08 23.68 1103.93 24.64C1104.79 25.6 1105.21 26.96 1105.21 28.72C1105.21 29.6267 1105.11 30.5067 1104.89 31.36C1104.47 33.44 1103.43 35.5733 1101.77 37.76C1100.17 39.8933 1098.2 41.7867 1095.85 43.44C1095.8 43.4933 1095.72 43.52 1095.61 43.52C1095.45 43.52 1095.32 43.4133 1095.21 43.2C1095.11 42.9867 1095.13 42.8267 1095.29 42.72C1098.97 39.6267 1101.11 36.32 1101.69 32.8C1101.8 32.16 1101.85 31.76 1101.85 31.6C1101.85 31.28 1101.8 30.96 1101.69 30.64C1101.16 31.0667 1100.49 31.28 1099.69 31.28C1098.47 31.28 1097.51 30.9067 1096.81 30.16C1096.12 29.36 1095.77 28.4267 1095.77 27.36C1095.77 26.1867 1096.17 25.2 1096.97 24.4C1097.77 23.6 1098.89 23.2 1100.33 23.2ZM1114.45 74.96C1112.42 74.96 1110.47 74.7467 1108.61 74.32C1106.74 73.9467 1104.82 73.2533 1102.85 72.24C1102.31 71.8667 1102.15 71.36 1102.37 70.72L1104.45 59.68C1104.45 59.4133 1104.58 59.28 1104.85 59.28C1105.17 59.28 1105.33 59.4133 1105.33 59.68C1106.87 68.7467 1110.61 73.28 1116.53 73.28C1118.98 73.28 1121.03 72.5333 1122.69 71.04C1124.39 69.5467 1125.46 67.4133 1125.89 64.64C1125.99 63.68 1126.05 63.0133 1126.05 62.64C1126.05 60.0267 1125.3 57.8133 1123.81 56C1122.31 54.1333 1120.18 52.1867 1117.41 50.16C1115.38 48.6133 1113.78 47.3333 1112.61 46.32C1111.49 45.3067 1110.53 44.1067 1109.73 42.72C1108.93 41.28 1108.53 39.6533 1108.53 37.84C1108.53 37.0933 1108.61 36.32 1108.77 35.52C1109.57 31.52 1111.59 28.4533 1114.85 26.32C1118.15 24.1867 1121.89 23.12 1126.05 23.12C1129.09 23.12 1132.15 23.76 1135.25 25.04C1135.99 25.4133 1136.29 25.8667 1136.13 26.4L1135.01 36.32C1134.95 36.48 1134.79 36.56 1134.53 36.56C1134.26 36.56 1134.1 36.48 1134.05 36.32C1133.41 32.8 1132.23 29.9733 1130.53 27.84C1128.87 25.7067 1126.77 24.64 1124.21 24.64C1122.23 24.64 1120.61 25.1467 1119.33 26.16C1118.05 27.1733 1117.09 28.4267 1116.45 29.92C1115.86 31.4133 1115.57 32.8533 1115.57 34.24C1115.57 35.84 1115.94 37.3067 1116.69 38.64C1117.43 39.92 1118.34 41.04 1119.41 42C1120.47 42.9067 1122.02 44.1333 1124.05 45.68C1127.14 47.9733 1129.49 50.1067 1131.09 52.08C1132.74 54 1133.57 56.3467 1133.57 59.12C1133.57 60.08 1133.51 60.8 1133.41 61.28C1132.71 65.28 1130.69 68.56 1127.33 71.12C1124.02 73.68 1119.73 74.96 1114.45 74.96Z" fill="#EEEEEE"/>
<path d="M1355.39 66.9695H1350.39V49.4646C1350.39 47.7393 1350.06 46.1199 1349.41 44.6062C1348.76 43.0925 1347.87 41.7742 1346.73 40.6511C1345.6 39.5118 1344.28 38.6166 1342.75 37.9656C1341.23 37.2983 1339.61 36.9646 1337.89 36.9646H1335.2V66.9695H1330.2V31.9597H1337.89C1339.48 31.9597 1341.01 32.1713 1342.48 32.5945C1343.96 33.0014 1345.34 33.5792 1346.63 34.3279C1347.92 35.0766 1349.09 35.9718 1350.15 37.0134C1351.2 38.0551 1352.12 39.2107 1352.9 40.4802C1353.67 39.2107 1354.58 38.0551 1355.64 37.0134C1356.7 35.9718 1357.87 35.0766 1359.15 34.3279C1360.44 33.5792 1361.82 33.0014 1363.28 32.5945C1364.76 32.1713 1366.3 31.9597 1367.89 31.9597H1375.61V66.9695H1370.6V36.9646H1367.89C1366.17 36.9646 1364.55 37.2983 1363.04 37.9656C1361.52 38.6166 1360.2 39.5118 1359.06 40.6511C1357.93 41.7742 1357.04 43.0925 1356.37 44.6062C1355.72 46.1199 1355.39 47.7393 1355.39 49.4646V66.9695ZM1433.3 49.4646C1433.3 51.8897 1432.92 54.1684 1432.16 56.3005C1431.39 58.4327 1430.3 60.2882 1428.89 61.8669C1427.49 63.4457 1425.8 64.6908 1423.83 65.6023C1421.86 66.5138 1419.67 66.9695 1417.26 66.9695H1405.62C1403.19 66.9695 1400.99 66.5138 1399 65.6023C1397.02 64.6908 1395.32 63.4457 1393.9 61.8669C1392.5 60.2882 1391.42 58.4327 1390.65 56.3005C1389.89 54.1684 1389.51 51.8897 1389.51 49.4646C1389.51 47.0557 1389.89 44.7934 1390.65 42.6775C1391.42 40.5453 1392.5 38.6899 1393.9 37.1111C1395.32 35.516 1397.02 34.2628 1399 33.3513C1400.99 32.4236 1403.19 31.9597 1405.62 31.9597H1417.26C1419.67 31.9597 1421.86 32.4236 1423.83 33.3513C1425.8 34.2628 1427.49 35.516 1428.89 37.1111C1430.3 38.6899 1431.39 40.5453 1432.16 42.6775C1432.92 44.7934 1433.3 47.0557 1433.3 49.4646ZM1428.3 49.4646C1428.3 47.7393 1428.05 46.1199 1427.54 44.6062C1427.04 43.0925 1426.31 41.7742 1425.35 40.6511C1424.4 39.5118 1423.25 38.6166 1421.88 37.9656C1420.53 37.2983 1418.99 36.9646 1417.26 36.9646H1405.62C1403.89 36.9646 1402.34 37.2983 1400.96 37.9656C1399.59 38.6166 1398.43 39.5118 1397.46 40.6511C1396.52 41.7742 1395.79 43.0925 1395.27 44.6062C1394.76 46.1199 1394.51 47.7393 1394.51 49.4646C1394.51 51.1899 1394.76 52.8175 1395.27 54.3474C1395.79 55.8611 1396.52 57.1876 1397.46 58.3269C1398.43 59.45 1399.59 60.337 1400.96 60.988C1402.34 61.6391 1403.89 61.9646 1405.62 61.9646H1417.26C1418.99 61.9646 1420.53 61.6391 1421.88 60.988C1423.25 60.337 1424.4 59.45 1425.35 58.3269C1426.31 57.1876 1427.04 55.8611 1427.54 54.3474C1428.05 52.8175 1428.3 51.1899 1428.3 49.4646ZM1465.61 66.9695H1460.6V36.9646H1442.9V31.9597H1483.31V36.9646H1465.61V66.9695ZM1536.73 49.4646C1536.73 51.8897 1536.35 54.1684 1535.58 56.3005C1534.82 58.4327 1533.73 60.2882 1532.31 61.8669C1530.91 63.4457 1529.23 64.6908 1527.26 65.6023C1525.29 66.5138 1523.1 66.9695 1520.69 66.9695H1509.05C1506.62 66.9695 1504.42 66.5138 1502.43 65.6023C1500.44 64.6908 1498.74 63.4457 1497.33 61.8669C1495.93 60.2882 1494.85 58.4327 1494.08 56.3005C1493.32 54.1684 1492.93 51.8897 1492.93 49.4646C1492.93 47.0557 1493.32 44.7934 1494.08 42.6775C1494.85 40.5453 1495.93 38.6899 1497.33 37.1111C1498.74 35.516 1500.44 34.2628 1502.43 33.3513C1504.42 32.4236 1506.62 31.9597 1509.05 31.9597H1520.69C1523.1 31.9597 1525.29 32.4236 1527.26 33.3513C1529.23 34.2628 1530.91 35.516 1532.31 37.1111C1533.73 38.6899 1534.82 40.5453 1535.58 42.6775C1536.35 44.7934 1536.73 47.0557 1536.73 49.4646ZM1531.73 49.4646C1531.73 47.7393 1531.48 46.1199 1530.97 44.6062C1530.47 43.0925 1529.73 41.7742 1528.77 40.6511C1527.83 39.5118 1526.67 38.6166 1525.31 37.9656C1523.96 37.2983 1522.42 36.9646 1520.69 36.9646H1509.05C1507.32 36.9646 1505.77 37.2983 1504.38 37.9656C1503.02 38.6166 1501.85 39.5118 1500.89 40.6511C1499.95 41.7742 1499.22 43.0925 1498.7 44.6062C1498.19 46.1199 1497.94 47.7393 1497.94 49.4646C1497.94 51.1899 1498.19 52.8175 1498.7 54.3474C1499.22 55.8611 1499.95 57.1876 1500.89 58.3269C1501.85 59.45 1503.02 60.337 1504.38 60.988C1505.77 61.6391 1507.32 61.9646 1509.05 61.9646H1520.69C1522.42 61.9646 1523.96 61.6391 1525.31 60.988C1526.67 60.337 1527.83 59.45 1528.77 58.3269C1529.73 57.1876 1530.47 55.8611 1530.97 54.3474C1531.48 52.8175 1531.73 51.1899 1531.73 49.4646ZM1591.03 66.9695H1584.27L1573.77 56.9597H1558.44V52.0281H1578.53C1579.58 52.0281 1580.55 51.8328 1581.46 51.4421C1582.38 51.0352 1583.16 50.49 1583.83 49.8064C1584.52 49.1228 1585.05 48.3253 1585.44 47.4138C1585.83 46.4861 1586.03 45.5014 1586.03 44.4597C1586.03 43.4181 1585.83 42.4415 1585.44 41.53C1585.05 40.6186 1584.52 39.8292 1583.83 39.1619C1583.16 38.4783 1582.38 37.9412 1581.46 37.5505C1580.55 37.1599 1579.58 36.9646 1578.53 36.9646H1555.63V66.9695H1550.63V31.9597H1578.53C1580.26 31.9597 1581.88 32.2934 1583.39 32.9607C1584.91 33.6117 1586.22 34.5069 1587.35 35.6462C1588.49 36.7693 1589.38 38.0876 1590.03 39.6013C1590.7 41.115 1591.03 42.7345 1591.03 44.4597C1591.03 46.0222 1590.77 47.5033 1590.23 48.9031C1589.69 50.2865 1588.95 51.5317 1588.01 52.6384C1587.06 53.7289 1585.95 54.6404 1584.66 55.3728C1583.39 56.0889 1582.02 56.5691 1580.54 56.8132L1591.03 66.9695ZM1643.6 56.9597C1643.6 58.3595 1643.34 59.6697 1642.82 60.8904C1642.3 62.0948 1641.58 63.1528 1640.67 64.0642C1639.78 64.9594 1638.72 65.6674 1637.5 66.1882C1636.29 66.7091 1635 66.9695 1633.62 66.9695H1603.2V61.9646H1633.62C1634.32 61.9646 1634.97 61.8344 1635.57 61.574C1636.17 61.3136 1636.69 60.9555 1637.13 60.4998C1637.59 60.044 1637.95 59.5151 1638.21 58.9128C1638.47 58.2944 1638.6 57.6433 1638.6 56.9597C1638.6 56.2761 1638.47 55.6332 1638.21 55.031C1637.95 54.4288 1637.59 53.8998 1637.13 53.4441C1636.69 52.9884 1636.17 52.6303 1635.57 52.3699C1634.97 52.1095 1634.32 51.9792 1633.62 51.9792H1613.21C1611.84 51.9792 1610.55 51.7188 1609.33 51.198C1608.1 50.6772 1607.04 49.9692 1606.13 49.074C1605.23 48.1625 1604.52 47.0964 1603.98 45.8757C1603.46 44.655 1603.2 43.3529 1603.2 41.9695C1603.2 40.6023 1603.46 39.3083 1603.98 38.0876C1604.52 36.8669 1605.23 35.809 1606.13 34.9138C1607.04 34.0024 1608.1 33.2862 1609.33 32.7654C1610.55 32.2283 1611.84 31.9597 1613.21 31.9597H1641.11V36.9646H1613.21C1612.52 36.9646 1611.87 37.0948 1611.25 37.3552C1610.65 37.6156 1610.12 37.9737 1609.67 38.4294C1609.21 38.8852 1608.85 39.4223 1608.59 40.0408C1608.33 40.643 1608.2 41.2859 1608.2 41.9695C1608.2 42.6531 1608.33 43.3041 1608.59 43.9226C1608.85 44.5248 1609.21 45.0538 1609.67 45.5095C1610.12 45.9653 1610.65 46.3233 1611.25 46.5837C1611.87 46.8442 1612.52 46.9744 1613.21 46.9744H1633.62C1635 46.9744 1636.29 47.2429 1637.5 47.78C1638.72 48.3009 1639.78 49.017 1640.67 49.9285C1641.58 50.8236 1642.3 51.8816 1642.82 53.1023C1643.34 54.3067 1643.6 55.5925 1643.6 56.9597Z" fill="#EEEEEE"/>
<path d="M1188.96 84.4619V16.3853L1194.31 22.2151V84.4619H1188.96Z" fill="#EEEEEE"/>
<path d="M1249.44 84.4619V16.3853L1254.8 22.2151V84.4619H1249.44Z" fill="#EEEEEE"/>
<path d="M1279.22 19.394H1260.79L1254.8 13.0001L1284.73 13.0001L1279.22 19.394Z" fill="#EEEEEE"/>
<path d="M1235.58 82.5811V76.1871H1241.88L1235.58 82.5811Z" fill="#EEEEEE"/>
<path d="M1296.7 82.5811V76.1871H1303L1296.7 82.5811Z" fill="#EEEEEE"/>
<path d="M1235.58 95.7451V88.9751L1241.88 82.9572V95.7451H1235.58Z" fill="#EEEEEE"/>
<path d="M1296.7 95.7451V88.9751L1303 82.9572V95.7451H1296.7Z" fill="#EEEEEE"/>
<rect width="35.0486" height="5.97479" transform="matrix(-0.556794 -0.83065 0.723038 -0.690808 1237.5 80.2759)" fill="#EEEEEE"/>
<rect width="31.5236" height="5.97479" transform="matrix(-0.556794 -0.83065 0.723038 -0.690808 1298.47 80.2612)" fill="#EEEEEE"/>
<path d="M1201.72 90.7774C1199.56 93.4082 1196.04 93.5151 1193.75 91.0191L1188.95 85.7768L1188.95 75.0587L1201.72 90.7774V90.7774Z" fill="#EEEEEE"/>
<path d="M1262.29 89.649C1260.13 92.2798 1256.6 92.3866 1254.32 89.8906L1249.52 84.6484L1249.52 73.9303L1262.29 89.649V89.649Z" fill="#EEEEEE"/>
<path d="M1236.21 95.7451H1225.97C1222.23 95.7451 1219.2 92.7141 1219.2 88.9751V88.9751L1236.21 88.9751V95.7451Z" fill="#EEEEEE"/>
<path d="M1297.01 95.7451H1287.09C1283.35 95.7451 1280.32 92.7141 1280.32 88.9751V88.9751L1297.01 88.9751V95.7451Z" fill="#EEEEEE"/>
<path d="M1176.36 64.1516C1173.4 64.1516 1171 61.7538 1171 58.796V52.116H1176.36V64.1516V64.1516Z" fill="#EEEEEE"/>
<rect x="1171" y="46.8501" width="14.4916" height="5.64171" fill="#EEEEEE"/>
<path d="M1198.41 53.0562V47.0383C1198.41 47.0383 1214.47 47.0383 1222.67 47.0383C1230.86 47.0383 1235.74 40.4563 1235.74 32.9341C1235.74 25.4118 1230.54 20.1462 1222.67 20.1462C1214.79 20.1462 1199.51 20.1462 1199.51 20.1462L1194.31 14.3164H1221.25C1231.95 14.3164 1240.62 22.9886 1240.62 33.6863V33.6863C1240.62 44.384 1231.95 53.0562 1221.25 53.0562H1198.41Z" fill="#EEEEEE"/>
<path d="M1271.19 19.9335C1274.8 15.3572 1278.89 12.8418 1284.58 13.0077C1287.17 13.0829 1288.69 13.42 1291.04 14.6968C1293.08 15.8013 1294.82 17.7014 1294.82 17.7014L1291.04 21.6506C1291.04 21.6506 1288.35 18.5328 1284.58 18.6417C1280.98 18.746 1277.27 20.5759 1274.8 23.7192C1272.49 26.6666 1271.3 29.8441 1271.19 33.882C1271.08 38.1836 1272.99 42.0094 1275.61 44.9697C1278.09 47.7755 1281.17 49.2118 1284.58 49.295C1288.17 49.3823 1291.8 47.7955 1294.18 44.5936C1296.44 41.5534 1297.79 37.9479 1297.79 33.882C1297.79 28.4249 1294.82 26.352 1294.82 26.352L1298.45 22.2225C1298.45 22.2225 1299.9 23.1551 1301.6 27.6727C1302.38 29.7546 1302.7 31.998 1302.7 33.882C1302.7 39.5203 1301.45 44.2997 1297.79 48.6838C1294.08 53.1353 1289.84 55.0454 1284.58 54.9367C1279.55 54.8327 1275.62 52.8283 1271.98 48.6838C1268.16 44.3396 1266.6 40.1747 1266.79 33.882C1266.96 28.0617 1267.85 24.1743 1271.19 19.9335Z" fill="#EEEEEE"/>
<path d="M1704 74.1795C1700.5 74.1795 1697.26 73.5495 1694.27 72.2895C1691.28 71.0295 1688.67 69.2795 1686.43 67.0395C1684.19 64.7528 1682.44 62.1161 1681.18 59.1295C1679.97 56.1428 1679.36 52.9228 1679.36 49.4695C1679.36 46.0161 1679.99 42.7961 1681.25 39.8095C1682.51 36.8228 1684.26 34.2095 1686.5 31.9695C1688.74 29.6828 1691.35 27.9095 1694.34 26.6495C1697.37 25.3895 1700.64 24.7595 1704.14 24.7595C1707.64 24.7595 1710.88 25.3895 1713.87 26.6495C1716.9 27.8628 1719.52 29.5895 1721.71 31.8295C1723.95 34.0695 1725.68 36.6828 1726.89 39.6695C1728.15 42.6095 1728.78 45.8295 1728.78 49.3295C1728.78 52.8295 1728.15 56.0961 1726.89 59.1295C1725.63 62.1161 1723.86 64.7528 1721.57 67.0395C1719.33 69.2795 1716.72 71.0295 1713.73 72.2895C1710.74 73.5495 1707.5 74.1795 1704 74.1795ZM1704 71.0295C1707.03 71.0295 1709.86 70.4695 1712.47 69.3495C1715.08 68.2295 1717.37 66.6895 1719.33 64.7295C1721.29 62.7695 1722.81 60.4828 1723.88 57.8695C1724.95 55.2095 1725.49 52.3628 1725.49 49.3295C1725.49 46.2961 1724.95 43.4728 1723.88 40.8595C1722.81 38.2461 1721.31 35.9828 1719.4 34.0695C1717.49 32.1561 1715.22 30.6628 1712.61 29.5895C1710.04 28.4695 1707.22 27.9095 1704.14 27.9095C1701.06 27.9095 1698.19 28.4695 1695.53 29.5895C1692.92 30.6628 1690.65 32.2028 1688.74 34.2095C1686.83 36.1695 1685.33 38.4561 1684.26 41.0695C1683.19 43.6361 1682.65 46.4361 1682.65 49.4695C1682.65 52.5028 1683.19 55.3261 1684.26 57.9395C1685.33 60.5528 1686.83 62.8395 1688.74 64.7995C1690.65 66.7595 1692.92 68.2995 1695.53 69.4195C1698.14 70.4928 1700.97 71.0295 1704 71.0295ZM1704.77 63.8895C1701.92 63.8895 1699.38 63.2828 1697.14 62.0695C1694.9 60.8561 1693.15 59.1761 1691.89 57.0295C1690.63 54.8361 1690 52.3161 1690 49.4695C1690 46.6228 1690.63 44.1261 1691.89 41.9795C1693.15 39.7861 1694.9 38.0828 1697.14 36.8695C1699.38 35.6561 1701.92 35.0495 1704.77 35.0495C1707.24 35.0495 1709.46 35.5628 1711.42 36.5895C1713.43 37.5695 1714.99 38.9461 1716.11 40.7195L1712.12 43.5895C1711.23 42.2828 1710.14 41.3261 1708.83 40.7195C1707.57 40.1128 1706.19 39.8095 1704.7 39.8095C1702.88 39.8095 1701.27 40.2295 1699.87 41.0695C1698.52 41.8628 1697.42 42.9828 1696.58 44.4295C1695.74 45.8295 1695.32 47.5095 1695.32 49.4695C1695.32 51.4295 1695.74 53.1328 1696.58 54.5795C1697.42 55.9795 1698.52 57.0995 1699.87 57.9395C1701.27 58.7328 1702.88 59.1295 1704.7 59.1295C1706.19 59.1295 1707.57 58.8261 1708.83 58.2195C1710.14 57.6128 1711.23 56.6561 1712.12 55.3495L1716.11 58.1495C1714.99 59.9228 1713.43 61.3228 1711.42 62.3495C1709.46 63.3761 1707.24 63.8895 1704.77 63.8895ZM1745.81 73.9695V69.2095L1765.76 49.9595C1767.54 48.2795 1768.84 46.8095 1769.68 45.5495C1770.57 44.2428 1771.15 43.0528 1771.43 41.9795C1771.76 40.8595 1771.92 39.7861 1771.92 38.7595C1771.92 36.2395 1771.04 34.2561 1769.26 32.8095C1767.49 31.3628 1764.9 30.6395 1761.49 30.6395C1758.88 30.6395 1756.52 31.0828 1754.42 31.9695C1752.32 32.8095 1750.5 34.1395 1748.96 35.9595L1744.2 31.8295C1746.07 29.4495 1748.57 27.6295 1751.69 26.3695C1754.87 25.0628 1758.34 24.4095 1762.12 24.4095C1765.53 24.4095 1768.49 24.9695 1771.01 26.0895C1773.53 27.1628 1775.47 28.7261 1776.82 30.7795C1778.22 32.8328 1778.92 35.2595 1778.92 38.0595C1778.92 39.6461 1778.71 41.2095 1778.29 42.7495C1777.87 44.2895 1777.08 45.9228 1775.91 47.6495C1774.75 49.3761 1773.07 51.3128 1770.87 53.4595L1753.09 70.6095L1751.41 67.8795H1781.02V73.9695H1745.81ZM1802.88 74.5295C1799.05 74.5295 1795.62 73.5495 1792.59 71.5895C1789.6 69.6295 1787.22 66.7828 1785.45 63.0495C1783.72 59.3161 1782.86 54.7895 1782.86 49.4695C1782.86 44.1495 1783.72 39.6228 1785.45 35.8895C1787.22 32.1561 1789.6 29.3095 1792.59 27.3495C1795.62 25.3895 1799.05 24.4095 1802.88 24.4095C1806.66 24.4095 1810.07 25.3895 1813.1 27.3495C1816.13 29.3095 1818.51 32.1561 1820.24 35.8895C1821.97 39.6228 1822.83 44.1495 1822.83 49.4695C1822.83 54.7895 1821.97 59.3161 1820.24 63.0495C1818.51 66.7828 1816.13 69.6295 1813.1 71.5895C1810.07 73.5495 1806.66 74.5295 1802.88 74.5295ZM1802.88 68.2995C1805.45 68.2995 1807.69 67.5995 1809.6 66.1995C1811.56 64.7995 1813.08 62.6995 1814.15 59.8995C1815.27 57.0995 1815.83 53.6228 1815.83 49.4695C1815.83 45.3161 1815.27 41.8395 1814.15 39.0395C1813.08 36.2395 1811.56 34.1395 1809.6 32.7395C1807.69 31.3395 1805.45 30.6395 1802.88 30.6395C1800.31 30.6395 1798.05 31.3395 1796.09 32.7395C1794.13 34.1395 1792.59 36.2395 1791.47 39.0395C1790.4 41.8395 1789.86 45.3161 1789.86 49.4695C1789.86 53.6228 1790.4 57.0995 1791.47 59.8995C1792.59 62.6995 1794.13 64.7995 1796.09 66.1995C1798.05 67.5995 1800.31 68.2995 1802.88 68.2995ZM1824.93 73.9695V69.2095L1844.88 49.9595C1846.65 48.2795 1847.96 46.8095 1848.8 45.5495C1849.68 44.2428 1850.27 43.0528 1850.55 41.9795C1850.87 40.8595 1851.04 39.7861 1851.04 38.7595C1851.04 36.2395 1850.15 34.2561 1848.38 32.8095C1846.6 31.3628 1844.01 30.6395 1840.61 30.6395C1837.99 30.6395 1835.64 31.0828 1833.54 31.9695C1831.44 32.8095 1829.62 34.1395 1828.08 35.9595L1823.32 31.8295C1825.18 29.4495 1827.68 27.6295 1830.81 26.3695C1833.98 25.0628 1837.46 24.4095 1841.24 24.4095C1844.64 24.4095 1847.61 24.9695 1850.13 26.0895C1852.65 27.1628 1854.58 28.7261 1855.94 30.7795C1857.34 32.8328 1858.04 35.2595 1858.04 38.0595C1858.04 39.6461 1857.83 41.2095 1857.41 42.7495C1856.99 44.2895 1856.19 45.9228 1855.03 47.6495C1853.86 49.3761 1852.18 51.3128 1849.99 53.4595L1832.21 70.6095L1830.53 67.8795H1860.14V73.9695H1824.93ZM1859.98 61.9295V57.0295L1885.04 24.9695H1892.6L1867.75 57.0295L1864.18 55.9095H1903.31V61.9295H1859.98ZM1887.21 73.9695V61.9295L1887.42 55.9095V45.2695H1894V73.9695H1887.21Z" fill="#EEEEEE"/>
</svg>
