<svg width="1920" height="88" viewBox="0 0 1920 88" fill="none" xmlns="http://www.w3.org/2000/svg">
<g clip-path="url(#clip0_412_29)">
<path d="M150.395 54H145.39V36.4951C145.39 34.7699 145.064 33.1504 144.413 31.6367C143.762 30.123 142.867 28.8047 141.728 27.6816C140.604 26.5423 139.278 25.6471 137.748 24.9961C136.234 24.3288 134.615 23.9951 132.89 23.9951H130.204V54H125.199V18.9902H132.89C134.485 18.9902 136.015 19.2018 137.479 19.625C138.961 20.0319 140.344 20.6097 141.63 21.3584C142.916 22.1071 144.088 23.0023 145.146 24.0439C146.203 25.0856 147.123 26.2412 147.904 27.5107C148.669 26.2412 149.581 25.0856 150.639 24.0439C151.697 23.0023 152.868 22.1071 154.154 21.3584C155.44 20.6097 156.815 20.0319 158.28 19.625C159.761 19.2018 161.299 18.9902 162.895 18.9902H170.609V54H165.604V23.9951H162.895C161.169 23.9951 159.55 24.3288 158.036 24.9961C156.522 25.6471 155.196 26.5423 154.057 27.6816C152.934 28.8047 152.038 30.123 151.371 31.6367C150.72 33.1504 150.395 34.7699 150.395 36.4951V54ZM228.305 36.4951C228.305 38.9202 227.922 41.1989 227.157 43.3311C226.392 45.4632 225.302 47.3187 223.886 48.8975C222.486 50.4762 220.801 51.7214 218.832 52.6328C216.863 53.5443 214.674 54 212.265 54H200.619C198.194 54 195.989 53.5443 194.003 52.6328C192.017 51.7214 190.316 50.4762 188.9 48.8975C187.501 47.3187 186.418 45.4632 185.653 43.3311C184.888 41.1989 184.506 38.9202 184.506 36.4951C184.506 34.0863 184.888 31.8239 185.653 29.708C186.418 27.5758 187.501 25.7204 188.9 24.1416C190.316 22.5465 192.017 21.2933 194.003 20.3818C195.989 19.4541 198.194 18.9902 200.619 18.9902H212.265C214.674 18.9902 216.863 19.4541 218.832 20.3818C220.801 21.2933 222.486 22.5465 223.886 24.1416C225.302 25.7204 226.392 27.5758 227.157 29.708C227.922 31.8239 228.305 34.0863 228.305 36.4951ZM223.3 36.4951C223.3 34.7699 223.048 33.1504 222.543 31.6367C222.038 30.123 221.306 28.8047 220.346 27.6816C219.402 26.5423 218.246 25.6471 216.879 24.9961C215.528 24.3288 213.99 23.9951 212.265 23.9951H200.619C198.894 23.9951 197.34 24.3288 195.956 24.9961C194.589 25.6471 193.425 26.5423 192.465 27.6816C191.521 28.8047 190.788 30.123 190.268 31.6367C189.763 33.1504 189.511 34.7699 189.511 36.4951C189.511 38.2204 189.763 39.848 190.268 41.3779C190.788 42.8916 191.521 44.2181 192.465 45.3574C193.425 46.4805 194.589 47.3675 195.956 48.0186C197.34 48.6696 198.894 48.9951 200.619 48.9951H212.265C213.99 48.9951 215.528 48.6696 216.879 48.0186C218.246 47.3675 219.402 46.4805 220.346 45.3574C221.306 44.2181 222.038 42.8916 222.543 41.3779C223.048 39.848 223.3 38.2204 223.3 36.4951ZM260.609 54H255.604V23.9951H237.904V18.9902H278.31V23.9951H260.609V54ZM331.732 36.4951C331.732 38.9202 331.35 41.1989 330.585 43.3311C329.82 45.4632 328.729 47.3187 327.313 48.8975C325.914 50.4762 324.229 51.7214 322.26 52.6328C320.29 53.5443 318.101 54 315.692 54H304.047C301.622 54 299.416 53.5443 297.431 52.6328C295.445 51.7214 293.744 50.4762 292.328 48.8975C290.928 47.3187 289.846 45.4632 289.081 43.3311C288.316 41.1989 287.934 38.9202 287.934 36.4951C287.934 34.0863 288.316 31.8239 289.081 29.708C289.846 27.5758 290.928 25.7204 292.328 24.1416C293.744 22.5465 295.445 21.2933 297.431 20.3818C299.416 19.4541 301.622 18.9902 304.047 18.9902H315.692C318.101 18.9902 320.29 19.4541 322.26 20.3818C324.229 21.2933 325.914 22.5465 327.313 24.1416C328.729 25.7204 329.82 27.5758 330.585 29.708C331.35 31.8239 331.732 34.0863 331.732 36.4951ZM326.728 36.4951C326.728 34.7699 326.475 33.1504 325.971 31.6367C325.466 30.123 324.734 28.8047 323.773 27.6816C322.829 26.5423 321.674 25.6471 320.307 24.9961C318.956 24.3288 317.418 23.9951 315.692 23.9951H304.047C302.322 23.9951 300.767 24.3288 299.384 24.9961C298.017 25.6471 296.853 26.5423 295.893 27.6816C294.949 28.8047 294.216 30.123 293.695 31.6367C293.191 33.1504 292.938 34.7699 292.938 36.4951C292.938 38.2204 293.191 39.848 293.695 41.3779C294.216 42.8916 294.949 44.2181 295.893 45.3574C296.853 46.4805 298.017 47.3675 299.384 48.0186C300.767 48.6696 302.322 48.9951 304.047 48.9951H315.692C317.418 48.9951 318.956 48.6696 320.307 48.0186C321.674 47.3675 322.829 46.4805 323.773 45.3574C324.734 44.2181 325.466 42.8916 325.971 41.3779C326.475 39.848 326.728 38.2204 326.728 36.4951ZM386.034 54H379.271L368.773 43.9902H353.441V39.0586H373.534C374.576 39.0586 375.552 38.8633 376.464 38.4727C377.375 38.0658 378.165 37.5205 378.832 36.8369C379.516 36.1533 380.053 35.3558 380.443 34.4443C380.834 33.5166 381.029 32.5319 381.029 31.4902C381.029 30.4486 380.834 29.472 380.443 28.5605C380.053 27.6491 379.516 26.8597 378.832 26.1924C378.165 25.5088 377.375 24.9717 376.464 24.5811C375.552 24.1904 374.576 23.9951 373.534 23.9951H350.634V54H345.629V18.9902H373.534C375.259 18.9902 376.879 19.3239 378.393 19.9912C379.906 20.6423 381.225 21.5374 382.348 22.6768C383.487 23.7998 384.382 25.1182 385.033 26.6318C385.701 28.1455 386.034 29.765 386.034 31.4902C386.034 33.0527 385.766 34.5339 385.229 35.9336C384.691 37.3171 383.951 38.5622 383.007 39.6689C382.063 40.7594 380.948 41.6709 379.662 42.4033C378.393 43.1195 377.017 43.5996 375.536 43.8438L386.034 54ZM438.603 43.9902C438.603 45.39 438.342 46.7002 437.821 47.9209C437.3 49.1253 436.584 50.1833 435.673 51.0947C434.778 51.9899 433.72 52.6979 432.499 53.2188C431.295 53.7396 430.001 54 428.617 54H398.197V48.9951H428.617C429.317 48.9951 429.968 48.8649 430.57 48.6045C431.173 48.3441 431.693 47.986 432.133 47.5303C432.589 47.0745 432.947 46.5456 433.207 45.9434C433.467 45.3249 433.598 44.6738 433.598 43.9902C433.598 43.3066 433.467 42.6637 433.207 42.0615C432.947 41.4593 432.589 40.9303 432.133 40.4746C431.693 40.0189 431.173 39.6608 430.57 39.4004C429.968 39.14 429.317 39.0098 428.617 39.0098H408.207C406.84 39.0098 405.546 38.7493 404.325 38.2285C403.104 37.7077 402.038 36.9997 401.127 36.1045C400.232 35.193 399.516 34.127 398.979 32.9062C398.458 31.6855 398.197 30.3835 398.197 29C398.197 27.6328 398.458 26.3389 398.979 25.1182C399.516 23.8975 400.232 22.8395 401.127 21.9443C402.038 21.0329 403.104 20.3167 404.325 19.7959C405.546 19.2588 406.84 18.9902 408.207 18.9902H436.112V23.9951H408.207C407.523 23.9951 406.872 24.1253 406.254 24.3857C405.652 24.6462 405.123 25.0042 404.667 25.46C404.211 25.9157 403.853 26.4528 403.593 27.0713C403.332 27.6735 403.202 28.3164 403.202 29C403.202 29.6836 403.332 30.3346 403.593 30.9531C403.853 31.5553 404.211 32.0843 404.667 32.54C405.123 32.9958 405.652 33.3538 406.254 33.6143C406.872 33.8747 407.523 34.0049 408.207 34.0049H428.617C430.001 34.0049 431.295 34.2734 432.499 34.8105C433.72 35.3314 434.778 36.0475 435.673 36.959C436.584 37.8542 437.3 38.9121 437.821 40.1328C438.342 41.3372 438.603 42.623 438.603 43.9902Z" fill="#EEEEEE"/>
<path d="M13.1963 56.8298L13.1963 7.45517L17.1319 11.6834L17.1319 56.8298H13.1963Z" fill="#EEEEEE"/>
<path d="M57.6445 56.8298V7.45517L61.5801 11.6834V56.8298H57.6445Z" fill="#EEEEEE"/>
<path d="M79.5219 9.63745L65.979 9.63745L61.5804 5.00005L83.5732 5.00005L79.5219 9.63745Z" fill="#EEEEEE"/>
<path d="M47.458 55.4658V50.8284H52.0881L47.458 55.4658Z" fill="#EEEEEE"/>
<path d="M92.3701 55.4658V50.8284H97.0002L92.3701 55.4658Z" fill="#EEEEEE"/>
<path d="M47.458 65.0134V60.1032L52.0881 55.7386V65.0134H47.458Z" fill="#EEEEEE"/>
<path d="M92.3701 65.0134V60.1032L97.0002 55.7386V65.0134H92.3701Z" fill="#EEEEEE"/>
<rect width="25.5245" height="4.36338" transform="matrix(-0.561832 -0.827251 0.727543 -0.686062 48.8701 53.7939)" fill="#EEEEEE"/>
<rect width="22.9574" height="4.36338" transform="matrix(-0.561832 -0.827251 0.727543 -0.686062 93.6709 53.7832)" fill="#EEEEEE"/>
<path d="M22.5749 61.4104C20.9869 63.3184 18.3974 63.3963 16.7189 61.5864L13.1919 57.7836L13.1919 50.0099L22.5749 61.4104V61.4104Z" fill="#EEEEEE"/>
<path d="M67.0837 60.592C65.4957 62.5001 62.9062 62.5779 61.2277 60.7681L57.7007 56.9652L57.7007 49.1915L67.0837 60.592V60.592Z" fill="#EEEEEE"/>
<path d="M47.9219 65.0134H40.3309C37.619 65.0134 35.4207 62.8151 35.4207 60.1032V60.1032L47.9219 60.1032V65.0134Z" fill="#EEEEEE"/>
<path d="M92.6006 65.0134H85.2411C82.5293 65.0134 80.3309 62.8151 80.3309 60.1032V60.1032L92.6006 60.1032V65.0134Z" fill="#EEEEEE"/>
<path d="M3.93556 42.0994C1.76201 42.0994 0 40.3374 0 38.1638L0 33.3701H3.93556L3.93556 42.0994V42.0994Z" fill="#EEEEEE"/>
<rect y="29.5508" width="10.6492" height="4.09182" fill="#EEEEEE"/>
<path d="M20.1414 34.052V29.6874C20.1414 29.6874 31.9481 29.6874 37.9672 29.6874C43.9863 29.6874 47.5746 24.9136 47.5746 19.4578C47.5746 14.0021 43.7548 10.183 37.9672 10.183C32.1796 10.183 20.9516 10.183 20.9516 10.183L17.1318 5.95481L37.1143 5.95481C44.8731 5.95481 51.1629 12.2446 51.1629 20.0034V20.0034C51.1629 27.7622 44.8731 34.052 37.1143 34.052H20.1414Z" fill="#EEEEEE"/>
<path d="M73.6267 10.0287C76.278 6.70964 79.2813 4.88529 83.4687 5.0056C85.3655 5.06009 86.4876 5.30461 88.2146 6.23065C89.7085 7.03176 90.9926 8.40985 90.9926 8.40985L88.2146 11.2741C88.2146 11.2741 86.2386 9.01281 83.4687 9.09182C80.8174 9.16745 78.0951 10.4946 76.2813 12.7745C74.5806 14.9121 73.7038 17.2167 73.6267 20.1453C73.5445 23.2652 74.9481 26.04 76.8709 28.187C78.6933 30.222 80.9585 31.2638 83.4687 31.3241C86.104 31.3874 88.7685 30.2365 90.5187 27.9142C92.1805 25.7093 93.1758 23.0942 93.1758 20.1453C93.1758 16.1874 90.9926 14.684 90.9926 14.684L93.6549 11.6889C93.6549 11.6889 94.7235 12.3653 95.9699 15.6418C96.5443 17.1518 96.7802 18.7789 96.7802 20.1453C96.7802 24.2347 95.862 27.7011 93.1758 30.8808C90.4483 34.1094 87.3341 35.4947 83.4687 35.4159C79.7717 35.3405 76.8814 33.8867 74.2049 30.8808C71.3994 27.73 70.2519 24.7093 70.3888 20.1453C70.5154 15.9239 71.1697 13.1045 73.6267 10.0287Z" fill="#EEEEEE"/>
<path d="M505 59.21C501.5 59.21 498.257 58.58 495.27 57.32C492.283 56.06 489.67 54.31 487.43 52.07C485.19 49.7833 483.44 47.1467 482.18 44.16C480.967 41.1733 480.36 37.9533 480.36 34.5C480.36 31.0467 480.99 27.8267 482.25 24.84C483.51 21.8533 485.26 19.24 487.5 17C489.74 14.7133 492.353 12.94 495.34 11.68C498.373 10.42 501.64 9.79 505.14 9.79C508.64 9.79 511.883 10.42 514.87 11.68C517.903 12.8933 520.517 14.62 522.71 16.86C524.95 19.1 526.677 21.7133 527.89 24.7C529.15 27.64 529.78 30.86 529.78 34.36C529.78 37.86 529.15 41.1267 527.89 44.16C526.63 47.1467 524.857 49.7833 522.57 52.07C520.33 54.31 517.717 56.06 514.73 57.32C511.743 58.58 508.5 59.21 505 59.21ZM505 56.06C508.033 56.06 510.857 55.5 513.47 54.38C516.083 53.26 518.37 51.72 520.33 49.76C522.29 47.8 523.807 45.5133 524.88 42.9C525.953 40.24 526.49 37.3933 526.49 34.36C526.49 31.3267 525.953 28.5033 524.88 25.89C523.807 23.2767 522.313 21.0133 520.4 19.1C518.487 17.1867 516.223 15.6933 513.61 14.62C511.043 13.5 508.22 12.94 505.14 12.94C502.06 12.94 499.19 13.5 496.53 14.62C493.917 15.6933 491.653 17.2333 489.74 19.24C487.827 21.2 486.333 23.4867 485.26 26.1C484.187 28.6667 483.65 31.4667 483.65 34.5C483.65 37.5333 484.187 40.3567 485.26 42.97C486.333 45.5833 487.827 47.87 489.74 49.83C491.653 51.79 493.917 53.33 496.53 54.45C499.143 55.5233 501.967 56.06 505 56.06ZM505.77 48.92C502.923 48.92 500.38 48.3133 498.14 47.1C495.9 45.8867 494.15 44.2067 492.89 42.06C491.63 39.8667 491 37.3467 491 34.5C491 31.6533 491.63 29.1567 492.89 27.01C494.15 24.8167 495.9 23.1133 498.14 21.9C500.38 20.6867 502.923 20.08 505.77 20.08C508.243 20.08 510.46 20.5933 512.42 21.62C514.427 22.6 515.99 23.9767 517.11 25.75L513.12 28.62C512.233 27.3133 511.137 26.3567 509.83 25.75C508.57 25.1433 507.193 24.84 505.7 24.84C503.88 24.84 502.27 25.26 500.87 26.1C499.517 26.8933 498.42 28.0133 497.58 29.46C496.74 30.86 496.32 32.54 496.32 34.5C496.32 36.46 496.74 38.1633 497.58 39.61C498.42 41.01 499.517 42.13 500.87 42.97C502.27 43.7633 503.88 44.16 505.7 44.16C507.193 44.16 508.57 43.8567 509.83 43.25C511.137 42.6433 512.233 41.6867 513.12 40.38L517.11 43.18C515.99 44.9533 514.427 46.3533 512.42 47.38C510.46 48.4067 508.243 48.92 505.77 48.92ZM546.812 59V54.24L566.762 34.99C568.535 33.31 569.842 31.84 570.682 30.58C571.569 29.2733 572.152 28.0833 572.432 27.01C572.759 25.89 572.922 24.8167 572.922 23.79C572.922 21.27 572.035 19.2867 570.262 17.84C568.489 16.3933 565.899 15.67 562.492 15.67C559.879 15.67 557.522 16.1133 555.422 17C553.322 17.84 551.502 19.17 549.962 20.99L545.202 16.86C547.069 14.48 549.565 12.66 552.692 11.4C555.865 10.0933 559.342 9.44 563.122 9.44C566.529 9.44 569.492 10 572.012 11.12C574.532 12.1933 576.469 13.7567 577.822 15.81C579.222 17.8633 579.922 20.29 579.922 23.09C579.922 24.6767 579.712 26.24 579.292 27.78C578.872 29.32 578.079 30.9533 576.912 32.68C575.745 34.4067 574.065 36.3433 571.872 38.49L554.092 55.64L552.412 52.91H582.022V59H546.812ZM603.879 59.56C600.052 59.56 596.622 58.58 593.589 56.62C590.602 54.66 588.222 51.8133 586.449 48.08C584.722 44.3467 583.859 39.82 583.859 34.5C583.859 29.18 584.722 24.6533 586.449 20.92C588.222 17.1867 590.602 14.34 593.589 12.38C596.622 10.42 600.052 9.44 603.879 9.44C607.659 9.44 611.065 10.42 614.099 12.38C617.132 14.34 619.512 17.1867 621.239 20.92C622.965 24.6533 623.829 29.18 623.829 34.5C623.829 39.82 622.965 44.3467 621.239 48.08C619.512 51.8133 617.132 54.66 614.099 56.62C611.065 58.58 607.659 59.56 603.879 59.56ZM603.879 53.33C606.445 53.33 608.685 52.63 610.599 51.23C612.559 49.83 614.075 47.73 615.149 44.93C616.269 42.13 616.829 38.6533 616.829 34.5C616.829 30.3467 616.269 26.87 615.149 24.07C614.075 21.27 612.559 19.17 610.599 17.77C608.685 16.37 606.445 15.67 603.879 15.67C601.312 15.67 599.049 16.37 597.089 17.77C595.129 19.17 593.589 21.27 592.469 24.07C591.395 26.87 590.859 30.3467 590.859 34.5C590.859 38.6533 591.395 42.13 592.469 44.93C593.589 47.73 595.129 49.83 597.089 51.23C599.049 52.63 601.312 53.33 603.879 53.33ZM625.928 59V54.24L645.878 34.99C647.652 33.31 648.958 31.84 649.798 30.58C650.685 29.2733 651.268 28.0833 651.548 27.01C651.875 25.89 652.038 24.8167 652.038 23.79C652.038 21.27 651.152 19.2867 649.378 17.84C647.605 16.3933 645.015 15.67 641.608 15.67C638.995 15.67 636.638 16.1133 634.538 17C632.438 17.84 630.618 19.17 629.078 20.99L624.318 16.86C626.185 14.48 628.682 12.66 631.808 11.4C634.982 10.0933 638.458 9.44 642.238 9.44C645.645 9.44 648.608 10 651.128 11.12C653.648 12.1933 655.585 13.7567 656.938 15.81C658.338 17.8633 659.038 20.29 659.038 23.09C659.038 24.6767 658.828 26.24 658.408 27.78C657.988 29.32 657.195 30.9533 656.028 32.68C654.862 34.4067 653.182 36.3433 650.988 38.49L633.208 55.64L631.528 52.91H661.138V59H625.928ZM660.976 46.96V42.06L686.036 10H693.596L668.746 42.06L665.176 40.94H704.306V46.96H660.976ZM688.206 59V46.96L688.416 40.94V30.3H694.996V59H688.206Z" fill="#EEEEEE"/>
<path d="M766.52 60.96C759.213 60.96 753.853 59.04 750.44 55.2C747.08 51.3067 745.4 46.4533 745.4 40.64C745.4 38.9867 745.587 37.04 745.96 34.8C746.867 29.6267 748.84 25.0933 751.88 21.2C754.92 17.3067 758.547 14.32 762.76 12.24C766.973 10.16 771.32 9.12 775.8 9.12C777.987 9.12 780.2 9.36 782.44 9.84C784.68 10.32 786.413 10.9067 787.64 11.6C787.96 11.8133 788.147 12.0267 788.2 12.24C788.307 12.4533 788.333 12.8533 788.28 13.44L787.16 23.6C787.107 23.76 786.947 23.84 786.68 23.84C786.467 23.84 786.333 23.76 786.28 23.6C785.533 19.5467 783.96 16.4533 781.56 14.32C779.213 12.1867 776.227 11.12 772.6 11.12C767.8 11.12 763.72 13.0133 760.36 16.8C757 20.5867 754.813 25.76 753.8 32.32C753.48 34.56 753.32 36.7467 753.32 38.88C753.32 42.7733 753.853 46.2933 754.92 49.44C756.04 52.5867 757.64 55.0667 759.72 56.88C761.8 58.64 764.227 59.52 767 59.52C772.707 59.52 778.333 55.4933 783.88 47.44C783.933 47.3333 784.04 47.28 784.2 47.28C784.36 47.28 784.493 47.3333 784.6 47.44C784.76 47.4933 784.813 47.5733 784.76 47.68L782.52 56.72C782.36 57.36 782.2 57.8133 782.04 58.08C781.88 58.2933 781.56 58.4533 781.08 58.56C776.28 60.16 771.427 60.96 766.52 60.96ZM808.513 60.96C804.78 60.96 801.553 60.1067 798.833 58.4C796.113 56.64 794.033 54.24 792.593 51.2C791.153 48.1067 790.433 44.64 790.433 40.8C790.433 38.7733 790.62 36.8267 790.993 34.96C791.846 30.0533 793.606 25.6267 796.273 21.68C798.993 17.7333 802.3 14.6667 806.193 12.48C810.14 10.24 814.326 9.12 818.753 9.12C822.593 9.12 825.9 9.97333 828.673 11.68C831.446 13.3867 833.553 15.76 834.993 18.8C836.486 21.7867 837.233 25.2 837.233 29.04C837.233 31.12 837.046 33.0933 836.673 34.96C835.766 40.1333 833.9 44.6933 831.073 48.64C828.246 52.5333 824.833 55.5733 820.833 57.76C816.833 59.8933 812.726 60.96 808.513 60.96ZM811.953 58.88C816.006 58.88 819.553 57.1467 822.593 53.68C825.633 50.16 827.713 45.3333 828.833 39.2C829.313 36.5333 829.553 33.9467 829.553 31.44C829.553 27.5467 828.993 24.0533 827.873 20.96C826.806 17.8667 825.206 15.44 823.073 13.68C820.993 11.92 818.513 11.04 815.633 11.04C811.526 11.04 807.953 12.8267 804.913 16.4C801.873 19.92 799.82 24.6933 798.753 30.72C798.273 33.28 798.033 35.8133 798.033 38.32C798.033 42.16 798.566 45.6533 799.633 48.8C800.753 51.8933 802.353 54.3467 804.433 56.16C806.513 57.9733 809.02 58.88 811.953 58.88ZM892.457 10C892.564 10 892.617 10.16 892.617 10.48C892.617 10.8 892.564 10.96 892.457 10.96C890.484 10.96 888.804 11.68 887.417 13.12C886.084 14.5067 885.177 16.48 884.697 19.04L877.337 60.64C877.337 60.8 877.204 60.9067 876.937 60.96C876.724 61.0667 876.484 61.12 876.217 61.12C875.79 61.12 875.497 61.0133 875.337 60.8L852.137 17.68L846.217 50.96C846.057 51.8133 845.977 52.64 845.977 53.44C845.977 57.1733 847.684 59.04 851.097 59.04C851.204 59.04 851.257 59.2 851.257 59.52C851.257 59.84 851.204 60 851.097 60C849.817 60 848.83 59.9733 848.137 59.92L843.817 59.84L839.897 59.92C839.097 59.9733 837.977 60 836.537 60C836.377 60 836.297 59.84 836.297 59.52C836.297 59.2 836.377 59.04 836.537 59.04C838.51 59.04 840.164 58.3467 841.497 56.96C842.884 55.5733 843.79 53.5733 844.217 50.96L850.697 15.04C849.737 13.5467 848.804 12.5067 847.897 11.92C846.99 11.28 846.004 10.96 844.937 10.96C844.777 10.96 844.697 10.8 844.697 10.48C844.697 10.16 844.777 10 844.937 10L848.297 10.08C849.044 10.1333 850.057 10.16 851.337 10.16C852.457 10.16 853.417 10.1333 854.217 10.08C855.017 10.0267 855.577 10 855.897 10C856.217 10 856.457 10.1067 856.617 10.32C856.777 10.48 856.964 10.8533 857.177 11.44C857.444 12.1333 857.87 13.04 858.457 14.16L877.257 49.12L882.697 19.04C882.857 18.08 882.937 17.2267 882.937 16.48C882.937 14.6667 882.51 13.3067 881.657 12.4C880.804 11.44 879.55 10.96 877.897 10.96C877.737 10.96 877.657 10.8 877.657 10.48C877.657 10.16 877.737 10 877.897 10L880.697 10.08C882.404 10.1867 883.87 10.24 885.097 10.24C886.004 10.24 887.364 10.1867 889.177 10.08L892.457 10ZM912.161 60.96C904.854 60.96 899.494 59.04 896.081 55.2C892.721 51.3067 891.041 46.4533 891.041 40.64C891.041 38.9867 891.227 37.04 891.601 34.8C892.507 29.6267 894.481 25.0933 897.521 21.2C900.561 17.3067 904.187 14.32 908.401 12.24C912.614 10.16 916.961 9.12 921.441 9.12C923.627 9.12 925.841 9.36 928.081 9.84C930.321 10.32 932.054 10.9067 933.281 11.6C933.601 11.8133 933.787 12.0267 933.841 12.24C933.947 12.4533 933.974 12.8533 933.921 13.44L932.801 23.6C932.747 23.76 932.587 23.84 932.321 23.84C932.107 23.84 931.974 23.76 931.921 23.6C931.174 19.5467 929.601 16.4533 927.201 14.32C924.854 12.1867 921.867 11.12 918.241 11.12C913.441 11.12 909.361 13.0133 906.001 16.8C902.641 20.5867 900.454 25.76 899.441 32.32C899.121 34.56 898.961 36.7467 898.961 38.88C898.961 42.7733 899.494 46.2933 900.561 49.44C901.681 52.5867 903.281 55.0667 905.361 56.88C907.441 58.64 909.867 59.52 912.641 59.52C918.347 59.52 923.974 55.4933 929.521 47.44C929.574 47.3333 929.681 47.28 929.841 47.28C930.001 47.28 930.134 47.3333 930.241 47.44C930.401 47.4933 930.454 47.5733 930.401 47.68L928.161 56.72C928.001 57.36 927.841 57.8133 927.681 58.08C927.521 58.2933 927.201 58.4533 926.721 58.56C921.921 60.16 917.067 60.96 912.161 60.96ZM972.794 10C973.22 10 973.38 10.24 973.274 10.72L971.594 21.2C971.594 21.36 971.487 21.44 971.274 21.44C971.114 21.44 970.954 21.4133 970.794 21.36C970.687 21.2533 970.634 21.1733 970.634 21.12C970.634 18.1867 969.807 15.8667 968.154 14.16C966.554 12.4 964.42 11.52 961.754 11.52H958.634C957.034 11.52 955.86 11.6533 955.114 11.92C954.367 12.1333 953.834 12.5867 953.514 13.28C953.194 13.9733 952.9 15.0667 952.634 16.56L949.754 32.96H959.514C961.807 32.96 963.567 32.5067 964.794 31.6C966.02 30.6933 966.847 29.1733 967.274 27.04C967.327 26.7733 967.514 26.6667 967.834 26.72C968.154 26.72 968.287 26.8533 968.234 27.12L967.514 31.2C967.354 31.9467 967.167 32.88 966.954 34C966.74 35.0667 966.554 36.2933 966.394 37.68C966.287 38.2133 966.18 38.8533 966.074 39.6C965.967 40.2933 965.834 41.0933 965.674 42C965.62 42.2133 965.434 42.32 965.114 42.32C964.794 42.2667 964.66 42.1333 964.714 41.92C964.82 41.44 964.874 40.8 964.874 40C964.874 36.6933 962.9 35.04 958.954 35.04H949.354L946.154 53.2C945.994 54.16 945.914 54.96 945.914 55.6C945.914 56.72 946.234 57.4667 946.874 57.84C947.514 58.2133 948.66 58.4 950.314 58.4H954.634C957.354 58.4 960.02 57.4133 962.634 55.44C965.247 53.4667 967.407 50.8267 969.114 47.52C969.114 47.4133 969.22 47.36 969.434 47.36C969.594 47.36 969.727 47.4133 969.834 47.52C969.994 47.5733 970.047 47.6267 969.994 47.68C969.034 50.7733 968.154 54.48 967.354 58.8C967.247 59.2267 967.087 59.5467 966.874 59.76C966.714 59.92 966.447 60 966.074 60H933.114C932.954 60 932.874 59.84 932.874 59.52C932.874 59.2 932.954 59.04 933.114 59.04C934.66 59.04 935.807 58.9067 936.554 58.64C937.3 58.3733 937.86 57.8667 938.234 57.12C938.607 56.3733 938.954 55.1733 939.274 53.52L945.834 16.48C946.047 15.0933 946.154 14.24 946.154 13.92C946.154 12.7467 945.807 11.9733 945.114 11.6C944.474 11.1733 943.3 10.96 941.594 10.96C941.487 10.96 941.434 10.8 941.434 10.48C941.434 10.16 941.487 10 941.594 10H972.794ZM972.745 60C972.638 60 972.585 59.84 972.585 59.52C972.585 59.2 972.638 59.04 972.745 59.04C974.345 59.04 975.518 58.9067 976.265 58.64C977.065 58.3733 977.652 57.8667 978.025 57.12C978.452 56.32 978.798 55.12 979.065 53.52L985.625 16.48C985.838 15.0933 985.945 14.2133 985.945 13.84C985.945 12.72 985.598 11.9733 984.905 11.6C984.265 11.1733 983.092 10.96 981.385 10.96C981.225 10.96 981.145 10.8 981.145 10.48C981.145 10.16 981.225 10 981.385 10L984.745 10.08C986.878 10.1867 988.585 10.24 989.865 10.24C990.452 10.24 991.705 10.1867 993.625 10.08C996.185 9.86667 998.158 9.76 999.545 9.76C1003.92 9.76 1007.44 10.72 1010.11 12.64C1012.77 14.5067 1014.11 17.2533 1014.11 20.88C1014.11 21.7333 1014.03 22.6933 1013.86 23.76C1013.23 27.12 1011.81 29.9733 1009.63 32.32C1007.49 34.6133 1005.01 36.32 1002.19 37.44C999.412 38.5067 996.718 39.04 994.105 39.04C992.772 39.04 991.678 38.9067 990.825 38.64C990.772 38.64 990.745 38.56 990.745 38.4C990.745 38.1333 990.798 37.8667 990.905 37.6C991.012 37.28 991.118 37.1467 991.225 37.2C991.918 37.4133 992.718 37.52 993.625 37.52C996.612 37.52 999.278 36.5067 1001.63 34.48C1003.97 32.4 1005.47 29.36 1006.11 25.36C1006.32 24.2933 1006.43 23.1467 1006.43 21.92C1006.43 18.6667 1005.6 16.08 1003.95 14.16C1002.35 12.24 1000.35 11.28 997.945 11.28C996.558 11.28 995.518 11.4133 994.825 11.68C994.185 11.9467 993.678 12.4533 993.305 13.2C992.932 13.8933 992.585 15.04 992.265 16.64L985.785 53.52C985.572 54.9067 985.465 55.7867 985.465 56.16C985.465 57.28 985.785 58.0533 986.425 58.48C987.118 58.8533 988.318 59.04 990.025 59.04C990.185 59.04 990.265 59.2 990.265 59.52C990.265 59.84 990.185 60 990.025 60C988.532 60 987.358 59.9733 986.505 59.92L981.225 59.84L976.265 59.92C975.412 59.9733 974.238 60 972.745 60ZM1021.26 60C1021.1 60 1021.02 59.84 1021.02 59.52C1021.02 59.2 1021.1 59.04 1021.26 59.04C1023.18 59.04 1024.62 58.9067 1025.58 58.64C1026.54 58.3733 1027.24 57.8667 1027.66 57.12C1028.14 56.32 1028.54 55.12 1028.86 53.52L1035.34 16.48C1035.5 15.52 1035.58 14.72 1035.58 14.08C1035.58 13.12 1035.34 12.48 1034.86 12.16C1034.38 11.84 1033.53 11.68 1032.3 11.68H1031.02C1028.25 11.68 1025.69 12.8 1023.34 15.04C1021 17.28 1019.29 20.2133 1018.22 23.84C1018.17 24 1017.98 24.0533 1017.66 24C1017.4 23.9467 1017.29 23.84 1017.34 23.68C1017.77 22.2933 1018.38 19.8667 1019.18 16.4C1020.04 12.88 1020.65 10.16 1021.02 8.24C1021.08 8.08 1021.26 8.02666 1021.58 8.08C1021.9 8.08 1022.04 8.16 1021.98 8.32C1021.82 9.44 1022.86 10 1025.1 10C1029.05 10.16 1033.93 10.24 1039.74 10.24C1042.46 10.24 1045.48 10.1867 1048.78 10.08L1053.82 10C1055.42 10 1056.62 9.86667 1057.42 9.6C1058.22 9.33333 1058.78 8.8 1059.1 8C1059.21 7.84 1059.4 7.78666 1059.66 7.84C1059.93 7.84 1060.04 7.94667 1059.98 8.16C1059.5 9.81333 1058.86 12.48 1058.06 16.16C1057.26 19.84 1056.78 22.3467 1056.62 23.68C1056.57 23.8933 1056.38 24 1056.06 24C1055.74 23.9467 1055.61 23.8133 1055.66 23.6C1055.88 22.1067 1055.98 21.0667 1055.98 20.48C1055.98 17.76 1055.26 15.6267 1053.82 14.08C1052.44 12.48 1050.46 11.68 1047.9 11.68H1046.62C1045.02 11.68 1043.96 12 1043.42 12.64C1042.89 13.28 1042.46 14.6133 1042.14 16.64L1035.66 53.52C1035.45 54.8 1035.34 55.6267 1035.34 56C1035.34 57.2267 1035.77 58.0533 1036.62 58.48C1037.48 58.8533 1039.08 59.04 1041.42 59.04C1041.53 59.04 1041.58 59.2 1041.58 59.52C1041.58 59.84 1041.53 60 1041.42 60C1039.66 60 1038.28 59.9733 1037.26 59.92L1031.26 59.84L1025.5 59.92C1024.44 59.9733 1023.02 60 1021.26 60ZM1067.33 9.2C1068.88 9.2 1070.08 9.68 1070.93 10.64C1071.79 11.6 1072.21 12.96 1072.21 14.72C1072.21 15.6267 1072.11 16.5067 1071.89 17.36C1071.47 19.44 1070.43 21.5733 1068.77 23.76C1067.17 25.8933 1065.2 27.7867 1062.85 29.44C1062.8 29.4933 1062.72 29.52 1062.61 29.52C1062.45 29.52 1062.32 29.4133 1062.21 29.2C1062.11 28.9867 1062.13 28.8267 1062.29 28.72C1065.97 25.6267 1068.11 22.32 1068.69 18.8C1068.8 18.16 1068.85 17.76 1068.85 17.6C1068.85 17.28 1068.8 16.96 1068.69 16.64C1068.16 17.0667 1067.49 17.28 1066.69 17.28C1065.47 17.28 1064.51 16.9067 1063.81 16.16C1063.12 15.36 1062.77 14.4267 1062.77 13.36C1062.77 12.1867 1063.17 11.2 1063.97 10.4C1064.77 9.6 1065.89 9.2 1067.33 9.2ZM1081.45 60.96C1079.42 60.96 1077.47 60.7467 1075.61 60.32C1073.74 59.9467 1071.82 59.2533 1069.85 58.24C1069.31 57.8667 1069.15 57.36 1069.37 56.72L1071.45 45.68C1071.45 45.4133 1071.58 45.28 1071.85 45.28C1072.17 45.28 1072.33 45.4133 1072.33 45.68C1073.87 54.7467 1077.61 59.28 1083.53 59.28C1085.98 59.28 1088.03 58.5333 1089.69 57.04C1091.39 55.5467 1092.46 53.4133 1092.89 50.64C1092.99 49.68 1093.05 49.0133 1093.05 48.64C1093.05 46.0267 1092.3 43.8133 1090.81 42C1089.31 40.1333 1087.18 38.1867 1084.41 36.16C1082.38 34.6133 1080.78 33.3333 1079.61 32.32C1078.49 31.3067 1077.53 30.1067 1076.73 28.72C1075.93 27.28 1075.53 25.6533 1075.53 23.84C1075.53 23.0933 1075.61 22.32 1075.77 21.52C1076.57 17.52 1078.59 14.4533 1081.85 12.32C1085.15 10.1867 1088.89 9.12 1093.05 9.12C1096.09 9.12 1099.15 9.76 1102.25 11.04C1102.99 11.4133 1103.29 11.8667 1103.13 12.4L1102.01 22.32C1101.95 22.48 1101.79 22.56 1101.53 22.56C1101.26 22.56 1101.1 22.48 1101.05 22.32C1100.41 18.8 1099.23 15.9733 1097.53 13.84C1095.87 11.7067 1093.77 10.64 1091.21 10.64C1089.23 10.64 1087.61 11.1467 1086.33 12.16C1085.05 13.1733 1084.09 14.4267 1083.45 15.92C1082.86 17.4133 1082.57 18.8533 1082.57 20.24C1082.57 21.84 1082.94 23.3067 1083.69 24.64C1084.43 25.92 1085.34 27.04 1086.41 28C1087.47 28.9067 1089.02 30.1333 1091.05 31.68C1094.14 33.9733 1096.49 36.1067 1098.09 38.08C1099.74 40 1100.57 42.3467 1100.57 45.12C1100.57 46.08 1100.51 46.8 1100.41 47.28C1099.71 51.28 1097.69 54.56 1094.33 57.12C1091.02 59.68 1086.73 60.96 1081.45 60.96Z" fill="#EEEEEE"/>
<path d="M1662 59.21C1658.5 59.21 1655.26 58.58 1652.27 57.32C1649.28 56.06 1646.67 54.31 1644.43 52.07C1642.19 49.7833 1640.44 47.1467 1639.18 44.16C1637.97 41.1733 1637.36 37.9533 1637.36 34.5C1637.36 31.0467 1637.99 27.8267 1639.25 24.84C1640.51 21.8533 1642.26 19.24 1644.5 17C1646.74 14.7133 1649.35 12.94 1652.34 11.68C1655.37 10.42 1658.64 9.79 1662.14 9.79C1665.64 9.79 1668.88 10.42 1671.87 11.68C1674.9 12.8933 1677.52 14.62 1679.71 16.86C1681.95 19.1 1683.68 21.7133 1684.89 24.7C1686.15 27.64 1686.78 30.86 1686.78 34.36C1686.78 37.86 1686.15 41.1267 1684.89 44.16C1683.63 47.1467 1681.86 49.7833 1679.57 52.07C1677.33 54.31 1674.72 56.06 1671.73 57.32C1668.74 58.58 1665.5 59.21 1662 59.21ZM1662 56.06C1665.03 56.06 1667.86 55.5 1670.47 54.38C1673.08 53.26 1675.37 51.72 1677.33 49.76C1679.29 47.8 1680.81 45.5133 1681.88 42.9C1682.95 40.24 1683.49 37.3933 1683.49 34.36C1683.49 31.3267 1682.95 28.5033 1681.88 25.89C1680.81 23.2767 1679.31 21.0133 1677.4 19.1C1675.49 17.1867 1673.22 15.6933 1670.61 14.62C1668.04 13.5 1665.22 12.94 1662.14 12.94C1659.06 12.94 1656.19 13.5 1653.53 14.62C1650.92 15.6933 1648.65 17.2333 1646.74 19.24C1644.83 21.2 1643.33 23.4867 1642.26 26.1C1641.19 28.6667 1640.65 31.4667 1640.65 34.5C1640.65 37.5333 1641.19 40.3567 1642.26 42.97C1643.33 45.5833 1644.83 47.87 1646.74 49.83C1648.65 51.79 1650.92 53.33 1653.53 54.45C1656.14 55.5233 1658.97 56.06 1662 56.06ZM1662.77 48.92C1659.92 48.92 1657.38 48.3133 1655.14 47.1C1652.9 45.8867 1651.15 44.2067 1649.89 42.06C1648.63 39.8667 1648 37.3467 1648 34.5C1648 31.6533 1648.63 29.1567 1649.89 27.01C1651.15 24.8167 1652.9 23.1133 1655.14 21.9C1657.38 20.6867 1659.92 20.08 1662.77 20.08C1665.24 20.08 1667.46 20.5933 1669.42 21.62C1671.43 22.6 1672.99 23.9767 1674.11 25.75L1670.12 28.62C1669.23 27.3133 1668.14 26.3567 1666.83 25.75C1665.57 25.1433 1664.19 24.84 1662.7 24.84C1660.88 24.84 1659.27 25.26 1657.87 26.1C1656.52 26.8933 1655.42 28.0133 1654.58 29.46C1653.74 30.86 1653.32 32.54 1653.32 34.5C1653.32 36.46 1653.74 38.1633 1654.58 39.61C1655.42 41.01 1656.52 42.13 1657.87 42.97C1659.27 43.7633 1660.88 44.16 1662.7 44.16C1664.19 44.16 1665.57 43.8567 1666.83 43.25C1668.14 42.6433 1669.23 41.6867 1670.12 40.38L1674.11 43.18C1672.99 44.9533 1671.43 46.3533 1669.42 47.38C1667.46 48.4067 1665.24 48.92 1662.77 48.92ZM1703.81 59V54.24L1723.76 34.99C1725.54 33.31 1726.84 31.84 1727.68 30.58C1728.57 29.2733 1729.15 28.0833 1729.43 27.01C1729.76 25.89 1729.92 24.8167 1729.92 23.79C1729.92 21.27 1729.04 19.2867 1727.26 17.84C1725.49 16.3933 1722.9 15.67 1719.49 15.67C1716.88 15.67 1714.52 16.1133 1712.42 17C1710.32 17.84 1708.5 19.17 1706.96 20.99L1702.2 16.86C1704.07 14.48 1706.57 12.66 1709.69 11.4C1712.87 10.0933 1716.34 9.44 1720.12 9.44C1723.53 9.44 1726.49 10 1729.01 11.12C1731.53 12.1933 1733.47 13.7567 1734.82 15.81C1736.22 17.8633 1736.92 20.29 1736.92 23.09C1736.92 24.6767 1736.71 26.24 1736.29 27.78C1735.87 29.32 1735.08 30.9533 1733.91 32.68C1732.75 34.4067 1731.07 36.3433 1728.87 38.49L1711.09 55.64L1709.41 52.91H1739.02V59H1703.81ZM1760.88 59.56C1757.05 59.56 1753.62 58.58 1750.59 56.62C1747.6 54.66 1745.22 51.8133 1743.45 48.08C1741.72 44.3467 1740.86 39.82 1740.86 34.5C1740.86 29.18 1741.72 24.6533 1743.45 20.92C1745.22 17.1867 1747.6 14.34 1750.59 12.38C1753.62 10.42 1757.05 9.44 1760.88 9.44C1764.66 9.44 1768.07 10.42 1771.1 12.38C1774.13 14.34 1776.51 17.1867 1778.24 20.92C1779.97 24.6533 1780.83 29.18 1780.83 34.5C1780.83 39.82 1779.97 44.3467 1778.24 48.08C1776.51 51.8133 1774.13 54.66 1771.1 56.62C1768.07 58.58 1764.66 59.56 1760.88 59.56ZM1760.88 53.33C1763.45 53.33 1765.69 52.63 1767.6 51.23C1769.56 49.83 1771.08 47.73 1772.15 44.93C1773.27 42.13 1773.83 38.6533 1773.83 34.5C1773.83 30.3467 1773.27 26.87 1772.15 24.07C1771.08 21.27 1769.56 19.17 1767.6 17.77C1765.69 16.37 1763.45 15.67 1760.88 15.67C1758.31 15.67 1756.05 16.37 1754.09 17.77C1752.13 19.17 1750.59 21.27 1749.47 24.07C1748.4 26.87 1747.86 30.3467 1747.86 34.5C1747.86 38.6533 1748.4 42.13 1749.47 44.93C1750.59 47.73 1752.13 49.83 1754.09 51.23C1756.05 52.63 1758.31 53.33 1760.88 53.33ZM1782.93 59V54.24L1802.88 34.99C1804.65 33.31 1805.96 31.84 1806.8 30.58C1807.68 29.2733 1808.27 28.0833 1808.55 27.01C1808.87 25.89 1809.04 24.8167 1809.04 23.79C1809.04 21.27 1808.15 19.2867 1806.38 17.84C1804.6 16.3933 1802.01 15.67 1798.61 15.67C1795.99 15.67 1793.64 16.1133 1791.54 17C1789.44 17.84 1787.62 19.17 1786.08 20.99L1781.32 16.86C1783.18 14.48 1785.68 12.66 1788.81 11.4C1791.98 10.0933 1795.46 9.44 1799.24 9.44C1802.64 9.44 1805.61 10 1808.13 11.12C1810.65 12.1933 1812.58 13.7567 1813.94 15.81C1815.34 17.8633 1816.04 20.29 1816.04 23.09C1816.04 24.6767 1815.83 26.24 1815.41 27.78C1814.99 29.32 1814.19 30.9533 1813.03 32.68C1811.86 34.4067 1810.18 36.3433 1807.99 38.49L1790.21 55.64L1788.53 52.91H1818.14V59H1782.93ZM1817.98 46.96V42.06L1843.04 10H1850.6L1825.75 42.06L1822.18 40.94H1861.31V46.96H1817.98ZM1845.21 59V46.96L1845.42 40.94V30.3H1852V59H1845.21Z" fill="#EEEEEE"/>
<path d="M1299.39 54H1294.39V36.4951C1294.39 34.7699 1294.06 33.1504 1293.41 31.6367C1292.76 30.123 1291.87 28.8047 1290.73 27.6816C1289.6 26.5423 1288.28 25.6471 1286.75 24.9961C1285.23 24.3288 1283.61 23.9951 1281.89 23.9951H1279.2V54H1274.2V18.9902H1281.89C1283.48 18.9902 1285.01 19.2018 1286.48 19.625C1287.96 20.0319 1289.34 20.6097 1290.63 21.3584C1291.92 22.1071 1293.09 23.0023 1294.15 24.0439C1295.2 25.0856 1296.12 26.2412 1296.9 27.5107C1297.67 26.2412 1298.58 25.0856 1299.64 24.0439C1300.7 23.0023 1301.87 22.1071 1303.15 21.3584C1304.44 20.6097 1305.82 20.0319 1307.28 19.625C1308.76 19.2018 1310.3 18.9902 1311.89 18.9902H1319.61V54H1314.6V23.9951H1311.89C1310.17 23.9951 1308.55 24.3288 1307.04 24.9961C1305.52 25.6471 1304.2 26.5423 1303.06 27.6816C1301.93 28.8047 1301.04 30.123 1300.37 31.6367C1299.72 33.1504 1299.39 34.7699 1299.39 36.4951V54ZM1377.3 36.4951C1377.3 38.9202 1376.92 41.1989 1376.16 43.3311C1375.39 45.4632 1374.3 47.3187 1372.89 48.8975C1371.49 50.4762 1369.8 51.7214 1367.83 52.6328C1365.86 53.5443 1363.67 54 1361.26 54H1349.62C1347.19 54 1344.99 53.5443 1343 52.6328C1341.02 51.7214 1339.32 50.4762 1337.9 48.8975C1336.5 47.3187 1335.42 45.4632 1334.65 43.3311C1333.89 41.1989 1333.51 38.9202 1333.51 36.4951C1333.51 34.0863 1333.89 31.8239 1334.65 29.708C1335.42 27.5758 1336.5 25.7204 1337.9 24.1416C1339.32 22.5465 1341.02 21.2933 1343 20.3818C1344.99 19.4541 1347.19 18.9902 1349.62 18.9902H1361.26C1363.67 18.9902 1365.86 19.4541 1367.83 20.3818C1369.8 21.2933 1371.49 22.5465 1372.89 24.1416C1374.3 25.7204 1375.39 27.5758 1376.16 29.708C1376.92 31.8239 1377.3 34.0863 1377.3 36.4951ZM1372.3 36.4951C1372.3 34.7699 1372.05 33.1504 1371.54 31.6367C1371.04 30.123 1370.31 28.8047 1369.35 27.6816C1368.4 26.5423 1367.25 25.6471 1365.88 24.9961C1364.53 24.3288 1362.99 23.9951 1361.26 23.9951H1349.62C1347.89 23.9951 1346.34 24.3288 1344.96 24.9961C1343.59 25.6471 1342.43 26.5423 1341.46 27.6816C1340.52 28.8047 1339.79 30.123 1339.27 31.6367C1338.76 33.1504 1338.51 34.7699 1338.51 36.4951C1338.51 38.2204 1338.76 39.848 1339.27 41.3779C1339.79 42.8916 1340.52 44.2181 1341.46 45.3574C1342.43 46.4805 1343.59 47.3675 1344.96 48.0186C1346.34 48.6696 1347.89 48.9951 1349.62 48.9951H1361.26C1362.99 48.9951 1364.53 48.6696 1365.88 48.0186C1367.25 47.3675 1368.4 46.4805 1369.35 45.3574C1370.31 44.2181 1371.04 42.8916 1371.54 41.3779C1372.05 39.848 1372.3 38.2204 1372.3 36.4951ZM1409.61 54H1404.6V23.9951H1386.9V18.9902H1427.31V23.9951H1409.61V54ZM1480.73 36.4951C1480.73 38.9202 1480.35 41.1989 1479.58 43.3311C1478.82 45.4632 1477.73 47.3187 1476.31 48.8975C1474.91 50.4762 1473.23 51.7214 1471.26 52.6328C1469.29 53.5443 1467.1 54 1464.69 54H1453.05C1450.62 54 1448.42 53.5443 1446.43 52.6328C1444.44 51.7214 1442.74 50.4762 1441.33 48.8975C1439.93 47.3187 1438.85 45.4632 1438.08 43.3311C1437.32 41.1989 1436.93 38.9202 1436.93 36.4951C1436.93 34.0863 1437.32 31.8239 1438.08 29.708C1438.85 27.5758 1439.93 25.7204 1441.33 24.1416C1442.74 22.5465 1444.44 21.2933 1446.43 20.3818C1448.42 19.4541 1450.62 18.9902 1453.05 18.9902H1464.69C1467.1 18.9902 1469.29 19.4541 1471.26 20.3818C1473.23 21.2933 1474.91 22.5465 1476.31 24.1416C1477.73 25.7204 1478.82 27.5758 1479.58 29.708C1480.35 31.8239 1480.73 34.0863 1480.73 36.4951ZM1475.73 36.4951C1475.73 34.7699 1475.48 33.1504 1474.97 31.6367C1474.47 30.123 1473.73 28.8047 1472.77 27.6816C1471.83 26.5423 1470.67 25.6471 1469.31 24.9961C1467.96 24.3288 1466.42 23.9951 1464.69 23.9951H1453.05C1451.32 23.9951 1449.77 24.3288 1448.38 24.9961C1447.02 25.6471 1445.85 26.5423 1444.89 27.6816C1443.95 28.8047 1443.22 30.123 1442.7 31.6367C1442.19 33.1504 1441.94 34.7699 1441.94 36.4951C1441.94 38.2204 1442.19 39.848 1442.7 41.3779C1443.22 42.8916 1443.95 44.2181 1444.89 45.3574C1445.85 46.4805 1447.02 47.3675 1448.38 48.0186C1449.77 48.6696 1451.32 48.9951 1453.05 48.9951H1464.69C1466.42 48.9951 1467.96 48.6696 1469.31 48.0186C1470.67 47.3675 1471.83 46.4805 1472.77 45.3574C1473.73 44.2181 1474.47 42.8916 1474.97 41.3779C1475.48 39.848 1475.73 38.2204 1475.73 36.4951ZM1535.03 54H1528.27L1517.77 43.9902H1502.44V39.0586H1522.53C1523.58 39.0586 1524.55 38.8633 1525.46 38.4727C1526.38 38.0658 1527.16 37.5205 1527.83 36.8369C1528.52 36.1533 1529.05 35.3558 1529.44 34.4443C1529.83 33.5166 1530.03 32.5319 1530.03 31.4902C1530.03 30.4486 1529.83 29.472 1529.44 28.5605C1529.05 27.6491 1528.52 26.8597 1527.83 26.1924C1527.16 25.5088 1526.38 24.9717 1525.46 24.5811C1524.55 24.1904 1523.58 23.9951 1522.53 23.9951H1499.63V54H1494.63V18.9902H1522.53C1524.26 18.9902 1525.88 19.3239 1527.39 19.9912C1528.91 20.6423 1530.22 21.5374 1531.35 22.6768C1532.49 23.7998 1533.38 25.1182 1534.03 26.6318C1534.7 28.1455 1535.03 29.765 1535.03 31.4902C1535.03 33.0527 1534.77 34.5339 1534.23 35.9336C1533.69 37.3171 1532.95 38.5622 1532.01 39.6689C1531.06 40.7594 1529.95 41.6709 1528.66 42.4033C1527.39 43.1195 1526.02 43.5996 1524.54 43.8438L1535.03 54ZM1587.6 43.9902C1587.6 45.39 1587.34 46.7002 1586.82 47.9209C1586.3 49.1253 1585.58 50.1833 1584.67 51.0947C1583.78 51.9899 1582.72 52.6979 1581.5 53.2188C1580.29 53.7396 1579 54 1577.62 54H1547.2V48.9951H1577.62C1578.32 48.9951 1578.97 48.8649 1579.57 48.6045C1580.17 48.3441 1580.69 47.986 1581.13 47.5303C1581.59 47.0745 1581.95 46.5456 1582.21 45.9434C1582.47 45.3249 1582.6 44.6738 1582.6 43.9902C1582.6 43.3066 1582.47 42.6637 1582.21 42.0615C1581.95 41.4593 1581.59 40.9303 1581.13 40.4746C1580.69 40.0189 1580.17 39.6608 1579.57 39.4004C1578.97 39.14 1578.32 39.0098 1577.62 39.0098H1557.21C1555.84 39.0098 1554.55 38.7493 1553.33 38.2285C1552.1 37.7077 1551.04 36.9997 1550.13 36.1045C1549.23 35.193 1548.52 34.127 1547.98 32.9062C1547.46 31.6855 1547.2 30.3835 1547.2 29C1547.2 27.6328 1547.46 26.3389 1547.98 25.1182C1548.52 23.8975 1549.23 22.8395 1550.13 21.9443C1551.04 21.0329 1552.1 20.3167 1553.33 19.7959C1554.55 19.2588 1555.84 18.9902 1557.21 18.9902H1585.11V23.9951H1557.21C1556.52 23.9951 1555.87 24.1253 1555.25 24.3857C1554.65 24.6462 1554.12 25.0042 1553.67 25.46C1553.21 25.9157 1552.85 26.4528 1552.59 27.0713C1552.33 27.6735 1552.2 28.3164 1552.2 29C1552.2 29.6836 1552.33 30.3346 1552.59 30.9531C1552.85 31.5553 1553.21 32.0843 1553.67 32.54C1554.12 32.9958 1554.65 33.3538 1555.25 33.6143C1555.87 33.8747 1556.52 34.0049 1557.21 34.0049H1577.62C1579 34.0049 1580.29 34.2734 1581.5 34.8105C1582.72 35.3314 1583.78 36.0475 1584.67 36.959C1585.58 37.8542 1586.3 38.9121 1586.82 40.1328C1587.34 41.3372 1587.6 42.623 1587.6 43.9902Z" fill="#EEEEEE"/>
<path d="M1162.2 56.8298V7.45517L1166.13 11.6834V56.8298H1162.2Z" fill="#EEEEEE"/>
<path d="M1206.64 56.8298V7.45517L1210.58 11.6834V56.8298H1206.64Z" fill="#EEEEEE"/>
<path d="M1228.52 9.63745L1214.98 9.63745L1210.58 5.00005L1232.57 5.00005L1228.52 9.63745Z" fill="#EEEEEE"/>
<path d="M1196.46 55.4658V50.8284H1201.09L1196.46 55.4658Z" fill="#EEEEEE"/>
<path d="M1241.37 55.4658V50.8284H1246L1241.37 55.4658Z" fill="#EEEEEE"/>
<path d="M1196.46 65.0134V60.1032L1201.09 55.7386V65.0134H1196.46Z" fill="#EEEEEE"/>
<path d="M1241.37 65.0134V60.1032L1246 55.7386V65.0134H1241.37Z" fill="#EEEEEE"/>
<rect width="25.5245" height="4.36338" transform="matrix(-0.561832 -0.827251 0.727543 -0.686062 1197.87 53.7939)" fill="#EEEEEE"/>
<rect width="22.9574" height="4.36338" transform="matrix(-0.561832 -0.827251 0.727543 -0.686062 1242.67 53.7832)" fill="#EEEEEE"/>
<path d="M1171.57 61.4104C1169.99 63.3184 1167.4 63.3963 1165.72 61.5864L1162.19 57.7836L1162.19 50.0099L1171.57 61.4104V61.4104Z" fill="#EEEEEE"/>
<path d="M1216.08 60.592C1214.5 62.5001 1211.91 62.5779 1210.23 60.7681L1206.7 56.9652L1206.7 49.1915L1216.08 60.592V60.592Z" fill="#EEEEEE"/>
<path d="M1196.92 65.0134H1189.33C1186.62 65.0134 1184.42 62.8151 1184.42 60.1032V60.1032L1196.92 60.1032V65.0134Z" fill="#EEEEEE"/>
<path d="M1241.6 65.0134H1234.24C1231.53 65.0134 1229.33 62.8151 1229.33 60.1032V60.1032L1241.6 60.1032V65.0134Z" fill="#EEEEEE"/>
<path d="M1152.94 42.0994C1150.76 42.0994 1149 40.3374 1149 38.1638V33.3701H1152.94V42.0994V42.0994Z" fill="#EEEEEE"/>
<rect x="1149" y="29.5508" width="10.6492" height="4.09182" fill="#EEEEEE"/>
<path d="M1169.14 34.052V29.6874C1169.14 29.6874 1180.95 29.6874 1186.97 29.6874C1192.99 29.6874 1196.57 24.9136 1196.57 19.4578C1196.57 14.0021 1192.75 10.183 1186.97 10.183C1181.18 10.183 1169.95 10.183 1169.95 10.183L1166.13 5.95481L1186.11 5.95481C1193.87 5.95481 1200.16 12.2446 1200.16 20.0034V20.0034C1200.16 27.7622 1193.87 34.052 1186.11 34.052H1169.14Z" fill="#EEEEEE"/>
<path d="M1222.63 10.0287C1225.28 6.70964 1228.28 4.88529 1232.47 5.0056C1234.37 5.06009 1235.49 5.30461 1237.21 6.23065C1238.71 7.03176 1239.99 8.40985 1239.99 8.40985L1237.21 11.2741C1237.21 11.2741 1235.24 9.01281 1232.47 9.09182C1229.82 9.16745 1227.1 10.4946 1225.28 12.7745C1223.58 14.9121 1222.7 17.2167 1222.63 20.1453C1222.54 23.2652 1223.95 26.04 1225.87 28.187C1227.69 30.222 1229.96 31.2638 1232.47 31.3241C1235.1 31.3874 1237.77 30.2365 1239.52 27.9142C1241.18 25.7093 1242.18 23.0942 1242.18 20.1453C1242.18 16.1874 1239.99 14.684 1239.99 14.684L1242.65 11.6889C1242.65 11.6889 1243.72 12.3653 1244.97 15.6418C1245.54 17.1518 1245.78 18.7789 1245.78 20.1453C1245.78 24.2347 1244.86 27.7011 1242.18 30.8808C1239.45 34.1094 1236.33 35.4947 1232.47 35.4159C1228.77 35.3405 1225.88 33.8867 1223.2 30.8808C1220.4 27.73 1219.25 24.7093 1219.39 20.1453C1219.52 15.9239 1220.17 13.1045 1222.63 10.0287Z" fill="#EEEEEE"/>
</g>
<defs>
<clipPath id="clip0_412_29">
<rect width="1920" height="88" fill="white"/>
</clipPath>
</defs>
</svg>
