<svg width="1147" height="97" viewBox="0 0 1147 97" fill="none" xmlns="http://www.w3.org/2000/svg">
<path d="M184.395 68H179.39V50.4951C179.39 48.7699 179.064 47.1504 178.413 45.6367C177.762 44.123 176.867 42.8047 175.728 41.6816C174.604 40.5423 173.278 39.6471 171.748 38.9961C170.234 38.3288 168.615 37.9951 166.89 37.9951H164.204V68H159.199V32.9902H166.89C168.485 32.9902 170.015 33.2018 171.479 33.625C172.961 34.0319 174.344 34.6097 175.63 35.3584C176.916 36.1071 178.088 37.0023 179.146 38.0439C180.203 39.0856 181.123 40.2412 181.904 41.5107C182.669 40.2412 183.581 39.0856 184.639 38.0439C185.697 37.0023 186.868 36.1071 188.154 35.3584C189.44 34.6097 190.815 34.0319 192.28 33.625C193.761 33.2018 195.299 32.9902 196.895 32.9902H204.609V68H199.604V37.9951H196.895C195.169 37.9951 193.55 38.3288 192.036 38.9961C190.522 39.6471 189.196 40.5423 188.057 41.6816C186.934 42.8047 186.038 44.123 185.371 45.6367C184.72 47.1504 184.395 48.7699 184.395 50.4951V68ZM262.305 50.4951C262.305 52.9202 261.922 55.1989 261.157 57.3311C260.392 59.4632 259.302 61.3187 257.886 62.8975C256.486 64.4762 254.801 65.7214 252.832 66.6328C250.863 67.5443 248.674 68 246.265 68H234.619C232.194 68 229.989 67.5443 228.003 66.6328C226.017 65.7214 224.316 64.4762 222.9 62.8975C221.501 61.3187 220.418 59.4632 219.653 57.3311C218.888 55.1989 218.506 52.9202 218.506 50.4951C218.506 48.0863 218.888 45.8239 219.653 43.708C220.418 41.5758 221.501 39.7204 222.9 38.1416C224.316 36.5465 226.017 35.2933 228.003 34.3818C229.989 33.4541 232.194 32.9902 234.619 32.9902H246.265C248.674 32.9902 250.863 33.4541 252.832 34.3818C254.801 35.2933 256.486 36.5465 257.886 38.1416C259.302 39.7204 260.392 41.5758 261.157 43.708C261.922 45.8239 262.305 48.0863 262.305 50.4951ZM257.3 50.4951C257.3 48.7699 257.048 47.1504 256.543 45.6367C256.038 44.123 255.306 42.8047 254.346 41.6816C253.402 40.5423 252.246 39.6471 250.879 38.9961C249.528 38.3288 247.99 37.9951 246.265 37.9951H234.619C232.894 37.9951 231.34 38.3288 229.956 38.9961C228.589 39.6471 227.425 40.5423 226.465 41.6816C225.521 42.8047 224.788 44.123 224.268 45.6367C223.763 47.1504 223.511 48.7699 223.511 50.4951C223.511 52.2204 223.763 53.848 224.268 55.3779C224.788 56.8916 225.521 58.2181 226.465 59.3574C227.425 60.4805 228.589 61.3675 229.956 62.0186C231.34 62.6696 232.894 62.9951 234.619 62.9951H246.265C247.99 62.9951 249.528 62.6696 250.879 62.0186C252.246 61.3675 253.402 60.4805 254.346 59.3574C255.306 58.2181 256.038 56.8916 256.543 55.3779C257.048 53.848 257.3 52.2204 257.3 50.4951ZM294.609 68H289.604V37.9951H271.904V32.9902H312.31V37.9951H294.609V68ZM365.732 50.4951C365.732 52.9202 365.35 55.1989 364.585 57.3311C363.82 59.4632 362.729 61.3187 361.313 62.8975C359.914 64.4762 358.229 65.7214 356.26 66.6328C354.29 67.5443 352.101 68 349.692 68H338.047C335.622 68 333.416 67.5443 331.431 66.6328C329.445 65.7214 327.744 64.4762 326.328 62.8975C324.928 61.3187 323.846 59.4632 323.081 57.3311C322.316 55.1989 321.934 52.9202 321.934 50.4951C321.934 48.0863 322.316 45.8239 323.081 43.708C323.846 41.5758 324.928 39.7204 326.328 38.1416C327.744 36.5465 329.445 35.2933 331.431 34.3818C333.416 33.4541 335.622 32.9902 338.047 32.9902H349.692C352.101 32.9902 354.29 33.4541 356.26 34.3818C358.229 35.2933 359.914 36.5465 361.313 38.1416C362.729 39.7204 363.82 41.5758 364.585 43.708C365.35 45.8239 365.732 48.0863 365.732 50.4951ZM360.728 50.4951C360.728 48.7699 360.475 47.1504 359.971 45.6367C359.466 44.123 358.734 42.8047 357.773 41.6816C356.829 40.5423 355.674 39.6471 354.307 38.9961C352.956 38.3288 351.418 37.9951 349.692 37.9951H338.047C336.322 37.9951 334.767 38.3288 333.384 38.9961C332.017 39.6471 330.853 40.5423 329.893 41.6816C328.949 42.8047 328.216 44.123 327.695 45.6367C327.191 47.1504 326.938 48.7699 326.938 50.4951C326.938 52.2204 327.191 53.848 327.695 55.3779C328.216 56.8916 328.949 58.2181 329.893 59.3574C330.853 60.4805 332.017 61.3675 333.384 62.0186C334.767 62.6696 336.322 62.9951 338.047 62.9951H349.692C351.418 62.9951 352.956 62.6696 354.307 62.0186C355.674 61.3675 356.829 60.4805 357.773 59.3574C358.734 58.2181 359.466 56.8916 359.971 55.3779C360.475 53.848 360.728 52.2204 360.728 50.4951ZM420.034 68H413.271L402.773 57.9902H387.441V53.0586H407.534C408.576 53.0586 409.552 52.8633 410.464 52.4727C411.375 52.0658 412.165 51.5205 412.832 50.8369C413.516 50.1533 414.053 49.3558 414.443 48.4443C414.834 47.5166 415.029 46.5319 415.029 45.4902C415.029 44.4486 414.834 43.472 414.443 42.5605C414.053 41.6491 413.516 40.8597 412.832 40.1924C412.165 39.5088 411.375 38.9717 410.464 38.5811C409.552 38.1904 408.576 37.9951 407.534 37.9951H384.634V68H379.629V32.9902H407.534C409.259 32.9902 410.879 33.3239 412.393 33.9912C413.906 34.6423 415.225 35.5374 416.348 36.6768C417.487 37.7998 418.382 39.1182 419.033 40.6318C419.701 42.1455 420.034 43.765 420.034 45.4902C420.034 47.0527 419.766 48.5339 419.229 49.9336C418.691 51.3171 417.951 52.5622 417.007 53.6689C416.063 54.7594 414.948 55.6709 413.662 56.4033C412.393 57.1195 411.017 57.5996 409.536 57.8438L420.034 68ZM472.603 57.9902C472.603 59.39 472.342 60.7002 471.821 61.9209C471.3 63.1253 470.584 64.1833 469.673 65.0947C468.778 65.9899 467.72 66.6979 466.499 67.2188C465.295 67.7396 464.001 68 462.617 68H432.197V62.9951H462.617C463.317 62.9951 463.968 62.8649 464.57 62.6045C465.173 62.3441 465.693 61.986 466.133 61.5303C466.589 61.0745 466.947 60.5456 467.207 59.9434C467.467 59.3249 467.598 58.6738 467.598 57.9902C467.598 57.3066 467.467 56.6637 467.207 56.0615C466.947 55.4593 466.589 54.9303 466.133 54.4746C465.693 54.0189 465.173 53.6608 464.57 53.4004C463.968 53.14 463.317 53.0098 462.617 53.0098H442.207C440.84 53.0098 439.546 52.7493 438.325 52.2285C437.104 51.7077 436.038 50.9997 435.127 50.1045C434.232 49.193 433.516 48.127 432.979 46.9062C432.458 45.6855 432.197 44.3835 432.197 43C432.197 41.6328 432.458 40.3389 432.979 39.1182C433.516 37.8975 434.232 36.8395 435.127 35.9443C436.038 35.0329 437.104 34.3167 438.325 33.7959C439.546 33.2588 440.84 32.9902 442.207 32.9902H470.112V37.9951H442.207C441.523 37.9951 440.872 38.1253 440.254 38.3857C439.652 38.6462 439.123 39.0042 438.667 39.46C438.211 39.9157 437.853 40.4528 437.593 41.0713C437.332 41.6735 437.202 42.3164 437.202 43C437.202 43.6836 437.332 44.3346 437.593 44.9531C437.853 45.5553 438.211 46.0843 438.667 46.54C439.123 46.9958 439.652 47.3538 440.254 47.6143C440.872 47.8747 441.523 48.0049 442.207 48.0049H462.617C464.001 48.0049 465.295 48.2734 466.499 48.8105C467.72 49.3314 468.778 50.0475 469.673 50.959C470.584 51.8542 471.3 52.9121 471.821 54.1328C472.342 55.3372 472.603 56.623 472.603 57.9902Z" fill="#EEEEEE"/>
<path d="M17.957 74.8569L17.957 17.8355L23.3126 22.7186L23.3126 74.8569H17.957Z" fill="#EEEEEE"/>
<path d="M78.4434 74.8569V17.8355L83.799 22.7186V74.8569H78.4434Z" fill="#EEEEEE"/>
<path d="M108.215 20.3557H89.7853L83.7997 15.0001L113.728 15.0001L108.215 20.3557Z" fill="#EEEEEE"/>
<path d="M64.582 73.2815V67.9259H70.8827L64.582 73.2815Z" fill="#EEEEEE"/>
<path d="M125.699 73.2815V67.9259H132L125.699 73.2815Z" fill="#EEEEEE"/>
<path d="M64.582 84.3079V78.6372L70.8827 73.5967V84.3079H64.582Z" fill="#EEEEEE"/>
<path d="M125.699 84.3079V78.6372L132 73.5967V84.3079H125.699Z" fill="#EEEEEE"/>
<rect x="66.5044" y="71.3508" width="31.2326" height="5.53302" transform="rotate(-128.669 66.5044 71.3508)" fill="#EEEEEE"/>
<rect x="127.469" y="71.3384" width="28.0914" height="5.53302" transform="rotate(-128.669 127.469 71.3384)" fill="#EEEEEE"/>
<path d="M30.7205 80.1468C28.5596 82.3504 25.0413 82.4455 22.7644 80.3621L17.9519 75.9584L17.9519 66.9808L30.7205 80.1468V80.1468Z" fill="#EEEEEE"/>
<path d="M91.2898 79.2018C89.1289 81.4053 85.6107 81.5005 83.3338 79.417L78.5213 75.0133L78.5213 66.0357L91.2898 79.2018V79.2018Z" fill="#EEEEEE"/>
<path d="M65.2124 84.3079H53.8711C50.7393 84.3079 48.2005 81.769 48.2005 78.6372V78.6372L65.2124 78.6372V84.3079Z" fill="#EEEEEE"/>
<path d="M126.014 84.3079H114.988C111.856 84.3079 109.317 81.769 109.317 78.6372V78.6372L126.014 78.6372V84.3079Z" fill="#EEEEEE"/>
<path d="M5.3556 57.845C2.39778 57.845 0 55.4472 0 52.4894L0 47.7638H5.3556L5.3556 57.845V57.845Z" fill="#EEEEEE"/>
<rect y="43.353" width="14.4916" height="4.72553" fill="#EEEEEE"/>
<path d="M27.408 48.5513V43.5107C27.408 43.5107 43.4748 43.5107 51.6657 43.5107C59.8566 43.5107 64.7397 37.9976 64.7397 31.6969C64.7397 25.3962 59.5416 20.9857 51.6657 20.9857C43.7898 20.9857 28.5106 20.9857 28.5106 20.9857L23.3125 16.1026H53.3984C62.3588 16.1026 69.6227 23.3665 69.6227 32.3269V32.3269C69.6227 41.2874 62.3588 48.5513 53.3984 48.5513H27.408Z" fill="#EEEEEE"/>
<path d="M100.191 20.8075C103.799 16.9744 107.886 14.8675 113.585 15.0065C116.166 15.0694 117.693 15.3518 120.043 16.4212C122.076 17.3464 123.823 18.9379 123.823 18.9379L120.043 22.2458C120.043 22.2458 117.354 19.6343 113.585 19.7255C109.977 19.8129 106.272 21.3456 103.804 23.9785C101.49 26.4472 100.296 29.1087 100.191 32.4909C100.08 36.094 101.99 39.2985 104.606 41.778C107.086 44.1282 110.169 45.3313 113.585 45.4009C117.171 45.474 120.797 44.145 123.179 41.463C125.44 38.9166 126.794 35.8965 126.794 32.4909C126.794 27.92 123.823 26.1838 123.823 26.1838L127.446 22.7248C127.446 22.7248 128.901 23.506 130.597 27.29C131.378 29.0338 131.699 30.9129 131.699 32.4909C131.699 37.2136 130.45 41.2168 126.794 44.889C123.083 48.6176 118.845 50.2175 113.585 50.1265C108.554 50.0394 104.621 48.3605 100.978 44.889C97.1605 41.2503 95.5991 37.7617 95.7853 32.4909C95.9576 27.6157 96.848 24.3597 100.191 20.8075Z" fill="#EEEEEE"/>
<path d="M543 73.21C539.5 73.21 536.257 72.58 533.27 71.32C530.283 70.06 527.67 68.31 525.43 66.07C523.19 63.7833 521.44 61.1467 520.18 58.16C518.967 55.1733 518.36 51.9533 518.36 48.5C518.36 45.0467 518.99 41.8267 520.25 38.84C521.51 35.8533 523.26 33.24 525.5 31C527.74 28.7133 530.353 26.94 533.34 25.68C536.373 24.42 539.64 23.79 543.14 23.79C546.64 23.79 549.883 24.42 552.87 25.68C555.903 26.8933 558.517 28.62 560.71 30.86C562.95 33.1 564.677 35.7133 565.89 38.7C567.15 41.64 567.78 44.86 567.78 48.36C567.78 51.86 567.15 55.1267 565.89 58.16C564.63 61.1467 562.857 63.7833 560.57 66.07C558.33 68.31 555.717 70.06 552.73 71.32C549.743 72.58 546.5 73.21 543 73.21ZM543 70.06C546.033 70.06 548.857 69.5 551.47 68.38C554.083 67.26 556.37 65.72 558.33 63.76C560.29 61.8 561.807 59.5133 562.88 56.9C563.953 54.24 564.49 51.3933 564.49 48.36C564.49 45.3267 563.953 42.5033 562.88 39.89C561.807 37.2767 560.313 35.0133 558.4 33.1C556.487 31.1867 554.223 29.6933 551.61 28.62C549.043 27.5 546.22 26.94 543.14 26.94C540.06 26.94 537.19 27.5 534.53 28.62C531.917 29.6933 529.653 31.2333 527.74 33.24C525.827 35.2 524.333 37.4867 523.26 40.1C522.187 42.6667 521.65 45.4667 521.65 48.5C521.65 51.5333 522.187 54.3567 523.26 56.97C524.333 59.5833 525.827 61.87 527.74 63.83C529.653 65.79 531.917 67.33 534.53 68.45C537.143 69.5233 539.967 70.06 543 70.06ZM543.77 62.92C540.923 62.92 538.38 62.3133 536.14 61.1C533.9 59.8867 532.15 58.2067 530.89 56.06C529.63 53.8667 529 51.3467 529 48.5C529 45.6533 529.63 43.1567 530.89 41.01C532.15 38.8167 533.9 37.1133 536.14 35.9C538.38 34.6867 540.923 34.08 543.77 34.08C546.243 34.08 548.46 34.5933 550.42 35.62C552.427 36.6 553.99 37.9767 555.11 39.75L551.12 42.62C550.233 41.3133 549.137 40.3567 547.83 39.75C546.57 39.1433 545.193 38.84 543.7 38.84C541.88 38.84 540.27 39.26 538.87 40.1C537.517 40.8933 536.42 42.0133 535.58 43.46C534.74 44.86 534.32 46.54 534.32 48.5C534.32 50.46 534.74 52.1633 535.58 53.61C536.42 55.01 537.517 56.13 538.87 56.97C540.27 57.7633 541.88 58.16 543.7 58.16C545.193 58.16 546.57 57.8567 547.83 57.25C549.137 56.6433 550.233 55.6867 551.12 54.38L555.11 57.18C553.99 58.9533 552.427 60.3533 550.42 61.38C548.46 62.4067 546.243 62.92 543.77 62.92ZM584.812 73V68.24L604.762 48.99C606.535 47.31 607.842 45.84 608.682 44.58C609.569 43.2733 610.152 42.0833 610.432 41.01C610.759 39.89 610.922 38.8167 610.922 37.79C610.922 35.27 610.035 33.2867 608.262 31.84C606.489 30.3933 603.899 29.67 600.492 29.67C597.879 29.67 595.522 30.1133 593.422 31C591.322 31.84 589.502 33.17 587.962 34.99L583.202 30.86C585.069 28.48 587.565 26.66 590.692 25.4C593.865 24.0933 597.342 23.44 601.122 23.44C604.529 23.44 607.492 24 610.012 25.12C612.532 26.1933 614.469 27.7567 615.822 29.81C617.222 31.8633 617.922 34.29 617.922 37.09C617.922 38.6767 617.712 40.24 617.292 41.78C616.872 43.32 616.079 44.9533 614.912 46.68C613.745 48.4067 612.065 50.3433 609.872 52.49L592.092 69.64L590.412 66.91H620.022V73H584.812ZM641.879 73.56C638.052 73.56 634.622 72.58 631.589 70.62C628.602 68.66 626.222 65.8133 624.449 62.08C622.722 58.3467 621.859 53.82 621.859 48.5C621.859 43.18 622.722 38.6533 624.449 34.92C626.222 31.1867 628.602 28.34 631.589 26.38C634.622 24.42 638.052 23.44 641.879 23.44C645.659 23.44 649.065 24.42 652.099 26.38C655.132 28.34 657.512 31.1867 659.239 34.92C660.965 38.6533 661.829 43.18 661.829 48.5C661.829 53.82 660.965 58.3467 659.239 62.08C657.512 65.8133 655.132 68.66 652.099 70.62C649.065 72.58 645.659 73.56 641.879 73.56ZM641.879 67.33C644.445 67.33 646.685 66.63 648.599 65.23C650.559 63.83 652.075 61.73 653.149 58.93C654.269 56.13 654.829 52.6533 654.829 48.5C654.829 44.3467 654.269 40.87 653.149 38.07C652.075 35.27 650.559 33.17 648.599 31.77C646.685 30.37 644.445 29.67 641.879 29.67C639.312 29.67 637.049 30.37 635.089 31.77C633.129 33.17 631.589 35.27 630.469 38.07C629.395 40.87 628.859 44.3467 628.859 48.5C628.859 52.6533 629.395 56.13 630.469 58.93C631.589 61.73 633.129 63.83 635.089 65.23C637.049 66.63 639.312 67.33 641.879 67.33ZM663.928 73V68.24L683.878 48.99C685.652 47.31 686.958 45.84 687.798 44.58C688.685 43.2733 689.268 42.0833 689.548 41.01C689.875 39.89 690.038 38.8167 690.038 37.79C690.038 35.27 689.152 33.2867 687.378 31.84C685.605 30.3933 683.015 29.67 679.608 29.67C676.995 29.67 674.638 30.1133 672.538 31C670.438 31.84 668.618 33.17 667.078 34.99L662.318 30.86C664.185 28.48 666.682 26.66 669.808 25.4C672.982 24.0933 676.458 23.44 680.238 23.44C683.645 23.44 686.608 24 689.128 25.12C691.648 26.1933 693.585 27.7567 694.938 29.81C696.338 31.8633 697.038 34.29 697.038 37.09C697.038 38.6767 696.828 40.24 696.408 41.78C695.988 43.32 695.195 44.9533 694.028 46.68C692.862 48.4067 691.182 50.3433 688.988 52.49L671.208 69.64L669.528 66.91H699.138V73H663.928ZM698.976 60.96V56.06L724.036 24H731.596L706.746 56.06L703.176 54.94H742.306V60.96H698.976ZM726.206 73V60.96L726.416 54.94V44.3H732.996V73H726.206Z" fill="#EEEEEE"/>
<path d="M809.52 74.96C802.213 74.96 796.853 73.04 793.44 69.2C790.08 65.3067 788.4 60.4533 788.4 54.64C788.4 52.9867 788.587 51.04 788.96 48.8C789.867 43.6267 791.84 39.0933 794.88 35.2C797.92 31.3067 801.547 28.32 805.76 26.24C809.973 24.16 814.32 23.12 818.8 23.12C820.987 23.12 823.2 23.36 825.44 23.84C827.68 24.32 829.413 24.9067 830.64 25.6C830.96 25.8133 831.147 26.0267 831.2 26.24C831.307 26.4533 831.333 26.8533 831.28 27.44L830.16 37.6C830.107 37.76 829.947 37.84 829.68 37.84C829.467 37.84 829.333 37.76 829.28 37.6C828.533 33.5467 826.96 30.4533 824.56 28.32C822.213 26.1867 819.227 25.12 815.6 25.12C810.8 25.12 806.72 27.0133 803.36 30.8C800 34.5867 797.813 39.76 796.8 46.32C796.48 48.56 796.32 50.7467 796.32 52.88C796.32 56.7733 796.853 60.2933 797.92 63.44C799.04 66.5867 800.64 69.0667 802.72 70.88C804.8 72.64 807.227 73.52 810 73.52C815.707 73.52 821.333 69.4933 826.88 61.44C826.933 61.3333 827.04 61.28 827.2 61.28C827.36 61.28 827.493 61.3333 827.6 61.44C827.76 61.4933 827.813 61.5733 827.76 61.68L825.52 70.72C825.36 71.36 825.2 71.8133 825.04 72.08C824.88 72.2933 824.56 72.4533 824.08 72.56C819.28 74.16 814.427 74.96 809.52 74.96ZM851.513 74.96C847.78 74.96 844.553 74.1067 841.833 72.4C839.113 70.64 837.033 68.24 835.593 65.2C834.153 62.1067 833.433 58.64 833.433 54.8C833.433 52.7733 833.62 50.8267 833.993 48.96C834.846 44.0533 836.606 39.6267 839.273 35.68C841.993 31.7333 845.3 28.6667 849.193 26.48C853.14 24.24 857.326 23.12 861.753 23.12C865.593 23.12 868.9 23.9733 871.673 25.68C874.446 27.3867 876.553 29.76 877.993 32.8C879.486 35.7867 880.233 39.2 880.233 43.04C880.233 45.12 880.046 47.0933 879.673 48.96C878.766 54.1333 876.9 58.6933 874.073 62.64C871.246 66.5333 867.833 69.5733 863.833 71.76C859.833 73.8933 855.726 74.96 851.513 74.96ZM854.953 72.88C859.006 72.88 862.553 71.1467 865.593 67.68C868.633 64.16 870.713 59.3333 871.833 53.2C872.313 50.5333 872.553 47.9467 872.553 45.44C872.553 41.5467 871.993 38.0533 870.873 34.96C869.806 31.8667 868.206 29.44 866.073 27.68C863.993 25.92 861.513 25.04 858.633 25.04C854.526 25.04 850.953 26.8267 847.913 30.4C844.873 33.92 842.82 38.6933 841.753 44.72C841.273 47.28 841.033 49.8133 841.033 52.32C841.033 56.16 841.566 59.6533 842.633 62.8C843.753 65.8933 845.353 68.3467 847.433 70.16C849.513 71.9733 852.02 72.88 854.953 72.88ZM935.457 24C935.564 24 935.617 24.16 935.617 24.48C935.617 24.8 935.564 24.96 935.457 24.96C933.484 24.96 931.804 25.68 930.417 27.12C929.084 28.5067 928.177 30.48 927.697 33.04L920.337 74.64C920.337 74.8 920.204 74.9067 919.937 74.96C919.724 75.0667 919.484 75.12 919.217 75.12C918.79 75.12 918.497 75.0133 918.337 74.8L895.137 31.68L889.217 64.96C889.057 65.8133 888.977 66.64 888.977 67.44C888.977 71.1733 890.684 73.04 894.097 73.04C894.204 73.04 894.257 73.2 894.257 73.52C894.257 73.84 894.204 74 894.097 74C892.817 74 891.83 73.9733 891.137 73.92L886.817 73.84L882.897 73.92C882.097 73.9733 880.977 74 879.537 74C879.377 74 879.297 73.84 879.297 73.52C879.297 73.2 879.377 73.04 879.537 73.04C881.51 73.04 883.164 72.3467 884.497 70.96C885.884 69.5733 886.79 67.5733 887.217 64.96L893.697 29.04C892.737 27.5467 891.804 26.5067 890.897 25.92C889.99 25.28 889.004 24.96 887.937 24.96C887.777 24.96 887.697 24.8 887.697 24.48C887.697 24.16 887.777 24 887.937 24L891.297 24.08C892.044 24.1333 893.057 24.16 894.337 24.16C895.457 24.16 896.417 24.1333 897.217 24.08C898.017 24.0267 898.577 24 898.897 24C899.217 24 899.457 24.1067 899.617 24.32C899.777 24.48 899.964 24.8533 900.177 25.44C900.444 26.1333 900.87 27.04 901.457 28.16L920.257 63.12L925.697 33.04C925.857 32.08 925.937 31.2267 925.937 30.48C925.937 28.6667 925.51 27.3067 924.657 26.4C923.804 25.44 922.55 24.96 920.897 24.96C920.737 24.96 920.657 24.8 920.657 24.48C920.657 24.16 920.737 24 920.897 24L923.697 24.08C925.404 24.1867 926.87 24.24 928.097 24.24C929.004 24.24 930.364 24.1867 932.177 24.08L935.457 24ZM955.161 74.96C947.854 74.96 942.494 73.04 939.081 69.2C935.721 65.3067 934.041 60.4533 934.041 54.64C934.041 52.9867 934.227 51.04 934.601 48.8C935.507 43.6267 937.481 39.0933 940.521 35.2C943.561 31.3067 947.187 28.32 951.401 26.24C955.614 24.16 959.961 23.12 964.441 23.12C966.627 23.12 968.841 23.36 971.081 23.84C973.321 24.32 975.054 24.9067 976.281 25.6C976.601 25.8133 976.787 26.0267 976.841 26.24C976.947 26.4533 976.974 26.8533 976.921 27.44L975.801 37.6C975.747 37.76 975.587 37.84 975.321 37.84C975.107 37.84 974.974 37.76 974.921 37.6C974.174 33.5467 972.601 30.4533 970.201 28.32C967.854 26.1867 964.867 25.12 961.241 25.12C956.441 25.12 952.361 27.0133 949.001 30.8C945.641 34.5867 943.454 39.76 942.441 46.32C942.121 48.56 941.961 50.7467 941.961 52.88C941.961 56.7733 942.494 60.2933 943.561 63.44C944.681 66.5867 946.281 69.0667 948.361 70.88C950.441 72.64 952.867 73.52 955.641 73.52C961.347 73.52 966.974 69.4933 972.521 61.44C972.574 61.3333 972.681 61.28 972.841 61.28C973.001 61.28 973.134 61.3333 973.241 61.44C973.401 61.4933 973.454 61.5733 973.401 61.68L971.161 70.72C971.001 71.36 970.841 71.8133 970.681 72.08C970.521 72.2933 970.201 72.4533 969.721 72.56C964.921 74.16 960.067 74.96 955.161 74.96ZM1015.79 24C1016.22 24 1016.38 24.24 1016.27 24.72L1014.59 35.2C1014.59 35.36 1014.49 35.44 1014.27 35.44C1014.11 35.44 1013.95 35.4133 1013.79 35.36C1013.69 35.2533 1013.63 35.1733 1013.63 35.12C1013.63 32.1867 1012.81 29.8667 1011.15 28.16C1009.55 26.4 1007.42 25.52 1004.75 25.52H1001.63C1000.03 25.52 998.86 25.6533 998.114 25.92C997.367 26.1333 996.834 26.5867 996.514 27.28C996.194 27.9733 995.9 29.0667 995.634 30.56L992.754 46.96H1002.51C1004.81 46.96 1006.57 46.5067 1007.79 45.6C1009.02 44.6933 1009.85 43.1733 1010.27 41.04C1010.33 40.7733 1010.51 40.6667 1010.83 40.72C1011.15 40.72 1011.29 40.8533 1011.23 41.12L1010.51 45.2C1010.35 45.9467 1010.17 46.88 1009.95 48C1009.74 49.0667 1009.55 50.2933 1009.39 51.68C1009.29 52.2133 1009.18 52.8533 1009.07 53.6C1008.97 54.2933 1008.83 55.0933 1008.67 56C1008.62 56.2133 1008.43 56.32 1008.11 56.32C1007.79 56.2667 1007.66 56.1333 1007.71 55.92C1007.82 55.44 1007.87 54.8 1007.87 54C1007.87 50.6933 1005.9 49.04 1001.95 49.04H992.354L989.154 67.2C988.994 68.16 988.914 68.96 988.914 69.6C988.914 70.72 989.234 71.4667 989.874 71.84C990.514 72.2133 991.66 72.4 993.314 72.4H997.634C1000.35 72.4 1003.02 71.4133 1005.63 69.44C1008.25 67.4667 1010.41 64.8267 1012.11 61.52C1012.11 61.4133 1012.22 61.36 1012.43 61.36C1012.59 61.36 1012.73 61.4133 1012.83 61.52C1012.99 61.5733 1013.05 61.6267 1012.99 61.68C1012.03 64.7733 1011.15 68.48 1010.35 72.8C1010.25 73.2267 1010.09 73.5467 1009.87 73.76C1009.71 73.92 1009.45 74 1009.07 74H976.114C975.954 74 975.874 73.84 975.874 73.52C975.874 73.2 975.954 73.04 976.114 73.04C977.66 73.04 978.807 72.9067 979.554 72.64C980.3 72.3733 980.86 71.8667 981.234 71.12C981.607 70.3733 981.954 69.1733 982.274 67.52L988.834 30.48C989.047 29.0933 989.154 28.24 989.154 27.92C989.154 26.7467 988.807 25.9733 988.114 25.6C987.474 25.1733 986.3 24.96 984.594 24.96C984.487 24.96 984.434 24.8 984.434 24.48C984.434 24.16 984.487 24 984.594 24H1015.79ZM1015.75 74C1015.64 74 1015.59 73.84 1015.59 73.52C1015.59 73.2 1015.64 73.04 1015.75 73.04C1017.35 73.04 1018.52 72.9067 1019.27 72.64C1020.07 72.3733 1020.65 71.8667 1021.03 71.12C1021.45 70.32 1021.8 69.12 1022.07 67.52L1028.63 30.48C1028.84 29.0933 1028.95 28.2133 1028.95 27.84C1028.95 26.72 1028.6 25.9733 1027.91 25.6C1027.27 25.1733 1026.09 24.96 1024.39 24.96C1024.23 24.96 1024.15 24.8 1024.15 24.48C1024.15 24.16 1024.23 24 1024.39 24L1027.75 24.08C1029.88 24.1867 1031.59 24.24 1032.87 24.24C1033.45 24.24 1034.71 24.1867 1036.63 24.08C1039.19 23.8667 1041.16 23.76 1042.55 23.76C1046.92 23.76 1050.44 24.72 1053.11 26.64C1055.77 28.5067 1057.11 31.2533 1057.11 34.88C1057.11 35.7333 1057.03 36.6933 1056.86 37.76C1056.23 41.12 1054.81 43.9733 1052.63 46.32C1050.49 48.6133 1048.01 50.32 1045.19 51.44C1042.41 52.5067 1039.72 53.04 1037.11 53.04C1035.77 53.04 1034.68 52.9067 1033.83 52.64C1033.77 52.64 1033.75 52.56 1033.75 52.4C1033.75 52.1333 1033.8 51.8667 1033.91 51.6C1034.01 51.28 1034.12 51.1467 1034.23 51.2C1034.92 51.4133 1035.72 51.52 1036.63 51.52C1039.61 51.52 1042.28 50.5067 1044.63 48.48C1046.97 46.4 1048.47 43.36 1049.11 39.36C1049.32 38.2933 1049.43 37.1467 1049.43 35.92C1049.43 32.6667 1048.6 30.08 1046.95 28.16C1045.35 26.24 1043.35 25.28 1040.95 25.28C1039.56 25.28 1038.52 25.4133 1037.83 25.68C1037.19 25.9467 1036.68 26.4533 1036.31 27.2C1035.93 27.8933 1035.59 29.04 1035.27 30.64L1028.79 67.52C1028.57 68.9067 1028.47 69.7867 1028.47 70.16C1028.47 71.28 1028.79 72.0533 1029.43 72.48C1030.12 72.8533 1031.32 73.04 1033.03 73.04C1033.19 73.04 1033.27 73.2 1033.27 73.52C1033.27 73.84 1033.19 74 1033.03 74C1031.53 74 1030.36 73.9733 1029.51 73.92L1024.23 73.84L1019.27 73.92C1018.41 73.9733 1017.24 74 1015.75 74ZM1064.26 74C1064.1 74 1064.02 73.84 1064.02 73.52C1064.02 73.2 1064.1 73.04 1064.26 73.04C1066.18 73.04 1067.62 72.9067 1068.58 72.64C1069.54 72.3733 1070.24 71.8667 1070.66 71.12C1071.14 70.32 1071.54 69.12 1071.86 67.52L1078.34 30.48C1078.5 29.52 1078.58 28.72 1078.58 28.08C1078.58 27.12 1078.34 26.48 1077.86 26.16C1077.38 25.84 1076.53 25.68 1075.3 25.68H1074.02C1071.25 25.68 1068.69 26.8 1066.34 29.04C1064 31.28 1062.29 34.2133 1061.22 37.84C1061.17 38 1060.98 38.0533 1060.66 38C1060.4 37.9467 1060.29 37.84 1060.34 37.68C1060.77 36.2933 1061.38 33.8667 1062.18 30.4C1063.04 26.88 1063.65 24.16 1064.02 22.24C1064.08 22.08 1064.26 22.0267 1064.58 22.08C1064.9 22.08 1065.04 22.16 1064.98 22.32C1064.82 23.44 1065.86 24 1068.1 24C1072.05 24.16 1076.93 24.24 1082.74 24.24C1085.46 24.24 1088.48 24.1867 1091.78 24.08L1096.82 24C1098.42 24 1099.62 23.8667 1100.42 23.6C1101.22 23.3333 1101.78 22.8 1102.1 22C1102.21 21.84 1102.4 21.7867 1102.66 21.84C1102.93 21.84 1103.04 21.9467 1102.98 22.16C1102.5 23.8133 1101.86 26.48 1101.06 30.16C1100.26 33.84 1099.78 36.3467 1099.62 37.68C1099.57 37.8933 1099.38 38 1099.06 38C1098.74 37.9467 1098.61 37.8133 1098.66 37.6C1098.88 36.1067 1098.98 35.0667 1098.98 34.48C1098.98 31.76 1098.26 29.6267 1096.82 28.08C1095.44 26.48 1093.46 25.68 1090.9 25.68H1089.62C1088.02 25.68 1086.96 26 1086.42 26.64C1085.89 27.28 1085.46 28.6133 1085.14 30.64L1078.66 67.52C1078.45 68.8 1078.34 69.6267 1078.34 70C1078.34 71.2267 1078.77 72.0533 1079.62 72.48C1080.48 72.8533 1082.08 73.04 1084.42 73.04C1084.53 73.04 1084.58 73.2 1084.58 73.52C1084.58 73.84 1084.53 74 1084.42 74C1082.66 74 1081.28 73.9733 1080.26 73.92L1074.26 73.84L1068.5 73.92C1067.44 73.9733 1066.02 74 1064.26 74ZM1110.33 23.2C1111.88 23.2 1113.08 23.68 1113.93 24.64C1114.79 25.6 1115.21 26.96 1115.21 28.72C1115.21 29.6267 1115.11 30.5067 1114.89 31.36C1114.47 33.44 1113.43 35.5733 1111.77 37.76C1110.17 39.8933 1108.2 41.7867 1105.85 43.44C1105.8 43.4933 1105.72 43.52 1105.61 43.52C1105.45 43.52 1105.32 43.4133 1105.21 43.2C1105.11 42.9867 1105.13 42.8267 1105.29 42.72C1108.97 39.6267 1111.11 36.32 1111.69 32.8C1111.8 32.16 1111.85 31.76 1111.85 31.6C1111.85 31.28 1111.8 30.96 1111.69 30.64C1111.16 31.0667 1110.49 31.28 1109.69 31.28C1108.47 31.28 1107.51 30.9067 1106.81 30.16C1106.12 29.36 1105.77 28.4267 1105.77 27.36C1105.77 26.1867 1106.17 25.2 1106.97 24.4C1107.77 23.6 1108.89 23.2 1110.33 23.2ZM1124.45 74.96C1122.42 74.96 1120.47 74.7467 1118.61 74.32C1116.74 73.9467 1114.82 73.2533 1112.85 72.24C1112.31 71.8667 1112.15 71.36 1112.37 70.72L1114.45 59.68C1114.45 59.4133 1114.58 59.28 1114.85 59.28C1115.17 59.28 1115.33 59.4133 1115.33 59.68C1116.87 68.7467 1120.61 73.28 1126.53 73.28C1128.98 73.28 1131.03 72.5333 1132.69 71.04C1134.39 69.5467 1135.46 67.4133 1135.89 64.64C1135.99 63.68 1136.05 63.0133 1136.05 62.64C1136.05 60.0267 1135.3 57.8133 1133.81 56C1132.31 54.1333 1130.18 52.1867 1127.41 50.16C1125.38 48.6133 1123.78 47.3333 1122.61 46.32C1121.49 45.3067 1120.53 44.1067 1119.73 42.72C1118.93 41.28 1118.53 39.6533 1118.53 37.84C1118.53 37.0933 1118.61 36.32 1118.77 35.52C1119.57 31.52 1121.59 28.4533 1124.85 26.32C1128.15 24.1867 1131.89 23.12 1136.05 23.12C1139.09 23.12 1142.15 23.76 1145.25 25.04C1145.99 25.4133 1146.29 25.8667 1146.13 26.4L1145.01 36.32C1144.95 36.48 1144.79 36.56 1144.53 36.56C1144.26 36.56 1144.1 36.48 1144.05 36.32C1143.41 32.8 1142.23 29.9733 1140.53 27.84C1138.87 25.7067 1136.77 24.64 1134.21 24.64C1132.23 24.64 1130.61 25.1467 1129.33 26.16C1128.05 27.1733 1127.09 28.4267 1126.45 29.92C1125.86 31.4133 1125.57 32.8533 1125.57 34.24C1125.57 35.84 1125.94 37.3067 1126.69 38.64C1127.43 39.92 1128.34 41.04 1129.41 42C1130.47 42.9067 1132.02 44.1333 1134.05 45.68C1137.14 47.9733 1139.49 50.1067 1141.09 52.08C1142.74 54 1143.57 56.3467 1143.57 59.12C1143.57 60.08 1143.51 60.8 1143.41 61.28C1142.71 65.28 1140.69 68.56 1137.33 71.12C1134.02 73.68 1129.73 74.96 1124.45 74.96Z" fill="#EEEEEE"/>
</svg>
