<svg width="419" height="221" viewBox="0 0 419 221" fill="none" xmlns="http://www.w3.org/2000/svg">
<path d="M57 190L57 8.99994L74 24.4999L74 190H57Z" fill="#EEEEEE"/>
<path d="M249 190L249 8.99994L266 24.4999V190H249Z" fill="#EEEEEE"/>
<path d="M343.5 17L285 17L266 0L361 0L343.5 17Z" fill="#EEEEEE"/>
<path d="M205 185V168H225L205 185Z" fill="#EEEEEE"/>
<path d="M399 185V168H419L399 185Z" fill="#EEEEEE"/>
<path d="M205 220V202L225 186V220H205Z" fill="#EEEEEE"/>
<path d="M399 220V202L419 186V220H399Z" fill="#EEEEEE"/>
<rect x="211.102" y="178.871" width="99.1399" height="17.5632" transform="rotate(-128.669 211.102 178.871)" fill="#EEEEEE"/>
<rect x="404.618" y="178.832" width="89.169" height="17.5632" transform="rotate(-128.669 404.618 178.832)" fill="#EEEEEE"/>
<path d="M97.5142 206.792C90.655 213.787 79.4872 214.089 72.2599 207.475L56.9837 193.497L56.9837 165L97.5142 206.792V206.792Z" fill="#EEEEEE"/>
<path d="M289.776 203.792C282.917 210.787 271.749 211.089 264.522 204.475L249.246 190.497L249.246 162L289.776 203.792V203.792Z" fill="#EEEEEE"/>
<path d="M207 220L171 220C161.059 220 153 211.941 153 202V202L207 202V220Z" fill="#EEEEEE"/>
<path d="M400 220L365 220C355.059 220 347 211.941 347 202V202L400 202V220Z" fill="#EEEEEE"/>
<path d="M17 136C7.61116 136 0 128.389 0 119L0 104H17L17 136V136Z" fill="#EEEEEE"/>
<rect y="90" width="46" height="15" fill="#EEEEEE"/>
<path d="M87 106.5V90.5C87 90.5 138 90.5 164 90.5C190 90.5 205.5 73 205.5 53C205.5 33 189 19 164 19C139 19 90.5 19 90.5 19L74 3.50002L169.5 3.50002C197.943 3.50002 221 26.5574 221 55V55C221 83.4427 197.943 106.5 169.5 106.5L87 106.5Z" fill="#EEEEEE"/>
<path d="M318.033 18.4345C329.486 6.26729 342.459 -0.420493 360.547 0.020527C368.74 0.220299 373.587 1.11666 381.047 4.51139C387.5 7.44812 393.047 12.5 393.047 12.5L381.047 23C381.047 23 372.512 14.7104 360.547 15C349.094 15.2772 337.335 20.1425 329.5 28.5C322.154 36.3363 318.367 44.7845 318.033 55.5205C317.678 66.9574 323.741 77.1293 332.047 85C339.919 92.46 349.704 96.2789 360.547 96.5C371.93 96.7321 383.44 92.5133 391 84C398.178 75.917 402.477 66.3307 402.477 55.5205C402.477 41.0114 393.047 35.5 393.047 35.5L404.547 24.5205C404.547 24.5205 409.163 27 414.547 39.0114C417.028 44.5467 418.047 50.5114 418.047 55.5205C418.047 70.5114 414.08 83.2186 402.477 94.875C390.696 106.71 377.244 111.789 360.547 111.5C344.577 111.224 332.092 105.894 320.531 94.875C308.412 83.3249 303.456 72.2513 304.047 55.5205C304.594 40.0455 307.42 29.7099 318.033 18.4345Z" fill="#EEEEEE"/>
</svg>
